<?xml version="1.0" standalone="no"?>
<!DOCTYPE svg PUBLIC "-//W3C//DTD SVG 1.1//EN" "http://www.w3.org/Graphics/SVG/1.1/DTD/svg11.dtd" >
<svg xmlns="http://www.w3.org/2000/svg" xmlns:xlink="http://www.w3.org/1999/xlink" version="1.1">
<metadata></metadata>
<defs>
<font id="blissboldbold" horiz-adv-x="542" >
<font-face units-per-em="1000" ascent="800" descent="-200" />
<missing-glyph horiz-adv-x="238" />
<glyph unicode=" "  horiz-adv-x="238" />
<glyph unicode="&#x09;" horiz-adv-x="238" />
<glyph unicode="&#xa0;" horiz-adv-x="238" />
<glyph unicode="!" horiz-adv-x="273" d="M196 607q0 -93 -1 -154.5t-4 -106.5t-8 -80.5t-13 -77.5h-67q-8 42 -13 78t-8 81t-4 106.5t-1 154.5v51h119v-52zM207 58q0 -30 -20.5 -50.5t-49.5 -20.5t-49.5 20.5t-20.5 50.5q0 31 20.5 51.5t49.5 20.5t49.5 -20.5t20.5 -51.5z" />
<glyph unicode="&#x22;" horiz-adv-x="397" d="M336 476h-90l-13 232h114zM154 476h-89l-13 232h113z" />
<glyph unicode="#" horiz-adv-x="715" d="M540 409l-32 -148h113v-95h-134l-36 -166h-114l37 166h-107l-36 -166h-114l36 166h-112v95h133l32 148h-113v95h133l34 155h114l-34 -155h107l33 155h114l-33 -155h113v-95h-134zM319 409l-32 -148h107l32 148h-107z" />
<glyph unicode="$" d="M478 193q0 -35 -13 -64.5t-35.5 -52t-54 -37.5t-68.5 -21v-103h-90v102q-50 5 -86 19.5t-65 33.5l49 88q25 -16 61 -31.5t77 -15.5q19 0 37 3.5t32.5 11.5t23 21t8.5 33q0 31 -25 52t-60 40t-74 40t-67 53q-18 21 -30 48t-12 69q0 28 10 54.5t29.5 48t47.5 37.5t65 22v99 h90v-96q37 -4 66.5 -13t50.5 -20l-2 -104q-36 20 -72.5 32t-77.5 12q-38 0 -61.5 -15.5t-23.5 -47.5q0 -27 20 -46t50 -36t65 -35t65 -42t50 -57.5t20 -81.5z" />
<glyph unicode="%" horiz-adv-x="894" d="M825 170q0 -45 -13 -78.5t-35 -56t-52 -33.5t-64 -11q-69 0 -114.5 44t-45.5 132q0 45 13 78.5t35 56t52 33.5t64 11q69 0 114.5 -44t45.5 -132zM278 -20h-106l444 696h111zM394 490q0 -45 -13 -78t-35 -55.5t-52 -33.5t-64 -11q-69 0 -114 43.5t-45 132.5 q0 45 12.5 78.5t34.5 56t52 33.5t64 11t63.5 -11t51 -33t33.5 -55.5t12 -77.5zM726 167q0 57 -17 81.5t-48 24.5q-32 0 -46.5 -28t-14.5 -74q0 -57 17.5 -82t47.5 -25q33 0 47 28t14 75zM295 488q0 57 -17 81.5t-48 24.5q-32 0 -46.5 -28t-14.5 -75q0 -57 17.5 -81.5 t47.5 -24.5q33 0 47 28t14 75z" />
<glyph unicode="&#x26;" horiz-adv-x="760" d="M738 10q-16 -8 -36 -12t-38 -4q-42 0 -83 21t-82 54q-48 -38 -103 -58.5t-123 -20.5q-50 0 -90.5 14.5t-69 40.5t-44.5 61.5t-16 76.5q0 34 10.5 62.5t29.5 51t44 40t55 31.5q-15 17 -29 33t-24 34t-16 38t-6 44q0 29 13 56t37.5 47.5t60.5 33t81 12.5q44 0 79.5 -11.5 t60 -31.5t37.5 -47.5t13 -60.5q0 -29 -10 -54t-28 -46t-42.5 -38.5t-52.5 -32.5q12 -14 29.5 -32t37 -37t39.5 -38t37 -34q13 14 26 32t24 37t19.5 38t13.5 37l101 -25q-17 -55 -45 -99t-64 -83q35 -28 65 -42.5t68 -9.5zM378 513q0 24 -16.5 44.5t-54.5 20.5 q-35 0 -52 -18.5t-17 -40.5q0 -23 13.5 -46t46.5 -58q41 22 60.5 47.5t19.5 50.5zM418 132q-19 17 -41 38t-43.5 42.5t-42 43.5t-36.5 40q-41 -20 -59.5 -45t-18.5 -58q0 -47 32.5 -76.5t86.5 -29.5q29 0 62 11t60 34z" />
<glyph unicode="'" horiz-adv-x="217" d="M154 476h-89l-13 232h113z" />
<glyph unicode="(" horiz-adv-x="347" d="M241 -236q-51 56 -84 114.5t-51.5 121t-26 129.5t-7.5 139t7.5 139t26.5 130t52 122.5t84 116.5l80 -60q-33 -44 -56.5 -87t-38 -95t-21.5 -116.5t-7 -149.5q0 -86 7 -150t21.5 -115.5t38 -94.5t56.5 -85z" />
<glyph unicode=")" horiz-adv-x="347" d="M276 268q0 -72 -7.5 -139t-26 -129.5t-51.5 -121t-84 -114.5l-81 59q33 42 56.5 85t38 94.5t21.5 115.5t7 150q0 85 -7 149.5t-21.5 116.5t-38 95t-56.5 87l80 60q51 -57 84 -116.5t52 -122.5t26.5 -130t7.5 -139z" />
<glyph unicode="*" horiz-adv-x="491" d="M389 390q-18 9 -35.5 23t-33.5 29t-30 28t-24 20q1 -12 5.5 -30.5t9 -40t7.5 -44t2 -42.5h-89q-1 20 2.5 42.5t8 43.5t9 40t5.5 31q-10 -7 -24 -20t-30 -27.5t-34 -29t-36 -23.5l-46 78q17 11 38.5 19t42.5 15t39 12.5t29 10.5q-11 5 -29 10.5t-38.5 12t-42 15.5 t-38.5 20l45 77q18 -9 35.5 -23.5t33.5 -29t29.5 -27.5t23.5 -20q-1 12 -5 30.5t-8 40t-7 44t-2 42.5h89q1 -20 -2.5 -42t-8 -43.5t-9 -40t-5.5 -30.5q10 7 23.5 20t30 27.5t34.5 28.5t36 23l45 -78q-17 -11 -38.5 -19.5t-42.5 -15t-39 -11.5t-29 -10q11 -6 29 -11.5 t39 -12.5t42 -15.5t39 -19.5z" />
<glyph unicode="+" horiz-adv-x="592" d="M353 200v-200h-113v200h-180v101h180v196h113v-196h178v-101h-178z" />
<glyph unicode="," horiz-adv-x="231" d="M173 119q14 -67 -2.5 -132t-65.5 -120l-73 31q13 27 21 51.5t11 48t2 48t-5 52.5z" />
<glyph unicode="-" horiz-adv-x="363" d="M50 201v95h263v-95h-263z" />
<glyph unicode="." horiz-adv-x="231" d="M184 58q0 -30 -20 -50.5t-49 -20.5t-49.5 20.5t-20.5 50.5q0 31 20.5 51.5t49.5 20.5t49 -20.5t20 -51.5z" />
<glyph unicode="/" horiz-adv-x="394" d="M130 -35h-120l255 731h120z" />
<glyph unicode="0" d="M515 325q0 -82 -17.5 -144.5t-49.5 -105t-77.5 -64t-101.5 -21.5q-112 0 -176 85t-64 250q0 82 17.5 145.5t50 106.5t77.5 65.5t101 22.5q112 0 176 -87.5t64 -252.5zM389 317q0 120 -29 186t-91 66q-34 0 -56 -19t-35 -51.5t-18 -75t-5 -90.5q0 -119 29 -183t90 -64 q34 0 56.5 18.5t35.5 50t18 73.5t5 89z" />
<glyph unicode="1" d="M283 0v539l-156 -62l-34 87l218 100h90v-664h-118z" />
<glyph unicode="2" d="M38 0q7 84 34 143t62.5 101t75.5 71.5t73 54.5t55 50.5t22 60.5q0 22 -8 37.5t-21.5 25t-32 14t-38.5 4.5q-52 0 -92.5 -14.5t-75.5 -31.5l-30 94q42 20 96.5 37.5t125.5 17.5q52 0 91 -13t65 -36t38.5 -54.5t12.5 -68.5q0 -47 -19.5 -82t-49 -64.5t-65.5 -56 t-69.5 -54.5t-60 -60.5t-36.5 -74.5l306 6v-107h-459z" />
<glyph unicode="3" d="M501 198q0 -40 -16.5 -77.5t-50.5 -66.5t-86 -46.5t-123 -17.5q-53 0 -99 10.5t-87 29.5l34 90q35 -16 69 -24t79 -8q25 0 51.5 5t48.5 16.5t35.5 30.5t13.5 48q0 20 -7 37.5t-23.5 30.5t-45 20.5t-71.5 7.5h-92v93l73 3q72 2 109.5 28t37.5 72q0 35 -26 58t-74 23 t-89.5 -14.5t-74.5 -29.5l-29 93q21 9 44 18.5t50.5 18t60 13.5t70.5 5q50 0 87.5 -14t62 -38t36.5 -55t12 -65q0 -51 -26.5 -87.5t-73.5 -56.5v-1q57 -10 88.5 -50.5t31.5 -99.5z" />
<glyph unicode="4" d="M438 163v-165h-119v165h-294v79l328 422h85v-403h99v-98h-99zM159 258q11 0 29.5 0.5t29.5 0.5l102 2l2 157q0 15 0.5 32t1.5 26z" />
<glyph unicode="5" d="M479 554l-251 5v-153q81 4 133.5 -12t83.5 -44.5t43.5 -65t12.5 -72.5q0 -43 -16.5 -83t-50.5 -71t-86 -49.5t-124 -18.5q-53 0 -95.5 10t-71.5 27l35 88q25 -14 55.5 -21.5t77.5 -7.5q30 0 56.5 7t46.5 21.5t31.5 35.5t11.5 50q0 24 -8.5 45t-28.5 36.5t-54 24t-86 8.5 h-87v344h397z" />
<glyph unicode="6" d="M514 218q0 -53 -18.5 -95.5t-50.5 -72t-74.5 -45.5t-90.5 -16q-50 0 -95 18t-78.5 56t-53.5 96.5t-20 140.5q0 76 20.5 142.5t59 116t94 78t124.5 28.5q35 0 72.5 -7t76.5 -24l-31 -95q-53 28 -109 28q-34 0 -64.5 -11.5t-54.5 -35.5t-40 -60.5t-22 -85.5 q30 20 68.5 34.5t84.5 14.5q41 0 77.5 -13.5t64.5 -39.5t44 -64t16 -88zM394 202q0 60 -33 91.5t-78 31.5q-34 0 -66.5 -13.5t-55.5 -32.5q0 -47 10.5 -83.5t28 -61.5t40 -37.5t48.5 -12.5q47 0 76.5 32t29.5 86z" />
<glyph unicode="7" d="M534 616q-109 -130 -181 -284t-110 -334h-125q18 95 49 180t66.5 157t72 129.5t66.5 98.5l-284 -6l-28 102h474v-43z" />
<glyph unicode="8" d="M517 184q0 -41 -16.5 -76.5t-48 -61.5t-78.5 -41t-107 -15q-115 0 -176.5 50.5t-61.5 136.5q0 32 10 57.5t26 45t36.5 34t41.5 24.5v2q-38 24 -61 57t-23 89q0 37 15.5 70t44.5 57t71 38t95 14q54 0 93.5 -16t65 -41t37.5 -56t12 -61q0 -31 -9.5 -55t-23.5 -42t-30 -30 t-30 -20v-2q54 -20 85.5 -59t31.5 -99zM368 480q0 38 -24.5 65.5t-69.5 27.5q-42 0 -67.5 -23.5t-25.5 -57.5q0 -27 11 -45.5t28.5 -31t39.5 -20.5t45 -14q21 15 42 38.5t21 60.5zM389 175q0 28 -14 47.5t-36.5 33.5t-49.5 22.5t-53 14.5q-12 -4 -26 -13.5t-26.5 -23 t-20.5 -31t-8 -37.5q0 -27 10 -46.5t26.5 -32.5t38.5 -19.5t46 -6.5q46 0 79.5 24t33.5 68z" />
<glyph unicode="9" d="M514 360q0 -87 -21 -156t-61.5 -116.5t-98.5 -72.5t-132 -25q-35 0 -71 7t-74 22l31 94q58 -27 115 -27q82 0 130 50t56 147h-1q-32 -23 -67.5 -37t-87.5 -14q-35 0 -70 11.5t-63 36.5t-45 64t-17 94q0 50 18.5 92t50 72t74 46.5t90.5 16.5q51 0 95.5 -17.5t77.5 -54 t52 -94.5t19 -139zM389 386q-1 89 -35 136.5t-91 47.5q-52 0 -80 -33t-28 -84q0 -60 31.5 -91.5t82.5 -31.5q38 0 69.5 17t50.5 39z" />
<glyph unicode=":" horiz-adv-x="231" d="M184 385q0 -30 -20 -50.5t-49 -20.5t-49.5 20.5t-20.5 50.5q0 31 20.5 51.5t49.5 20.5t49 -20.5t20 -51.5zM184 58q0 -30 -20 -50.5t-49 -20.5t-49.5 20.5t-20.5 50.5q0 31 20.5 51.5t49.5 20.5t49 -20.5t20 -51.5z" />
<glyph unicode=";" horiz-adv-x="231" d="M184 385q0 -30 -20 -50.5t-49 -20.5t-49.5 20.5t-20.5 50.5q0 31 20.5 51.5t49.5 20.5t49 -20.5t20 -51.5zM173 119q14 -67 -3 -132t-66 -120l-72 31q13 27 21 51.5t11 48t2 48t-5 52.5z" />
<glyph unicode="&#x3c;" horiz-adv-x="556" d="M48 213v94l434 179v-104l-271 -103l-56 -18v-2l56 -18l271 -103v-104z" />
<glyph unicode="=" horiz-adv-x="592" d="M60 302v101h471v-101h-471zM60 97v102h471v-102h-471z" />
<glyph unicode="&#x3e;" horiz-adv-x="556" d="M73 34v104l272 103l56 18v2l-56 18l-272 103v104l434 -179v-94z" />
<glyph unicode="?" horiz-adv-x="475" d="M432 530q0 -35 -15.5 -63t-38.5 -51.5t-50 -43t-50 -37.5t-38.5 -34.5t-15.5 -34.5q0 -13 4.5 -22.5t11.5 -20.5l-99 -40q-35 41 -35 91q0 28 14.5 51.5t36 43.5t47 38t47 36t36 36.5t14.5 40.5q0 28 -18 44t-51 16q-32 0 -63 -14t-65 -44l-54 73q48 43 98.5 63t103.5 20 q89 0 134.5 -42t45.5 -106zM268 58q0 -30 -20.5 -50.5t-49.5 -20.5t-49.5 20.5t-20.5 50.5q0 31 20.5 51.5t49.5 20.5t49.5 -20.5t20.5 -51.5z" />
<glyph unicode="@" horiz-adv-x="780" d="M745 362q0 -111 -48 -166.5t-125 -55.5q-40 0 -66.5 21.5t-34.5 60.5h-1q-6 -13 -19 -27t-31 -26t-41 -20t-49 -8q-23 0 -47 8.5t-43.5 27t-31.5 49.5t-12 76q0 49 17 89.5t46.5 69.5t69.5 45t87 16q37 0 75.5 -10t75.5 -33l-21 -157q-3 -23 -4 -43t2.5 -35t12.5 -23.5 t26 -8.5q36 0 57.5 38t21.5 107q0 50 -15.5 95.5t-47 80t-80.5 55t-116 20.5q-61 0 -112.5 -20.5t-89.5 -59t-59.5 -94.5t-21.5 -126q0 -65 18 -114.5t49 -82.5t73 -50t90 -17q38 0 75.5 6t63.5 20l24 -71q-43 -17 -85.5 -22.5t-84.5 -5.5q-67 0 -123 23.5t-97 66.5 t-64 104.5t-23 136.5q0 88 29 158t79 119t117 75.5t144 26.5q73 0 135.5 -22.5t108 -63.5t71 -100.5t25.5 -132.5zM468 431q-26 17 -58 17q-24 0 -45 -10t-36.5 -29t-25 -45.5t-9.5 -60.5q0 -48 16 -67t43 -19q16 0 33 8t32 25t26 45t16 68z" />
<glyph unicode="A" horiz-adv-x="626" d="M489 0l-65 165h-235l-61 -165h-119l256 662h88l265 -662h-129zM333 415q-17 47 -25 82h-1q-3 -17 -9.5 -37t-14.5 -43l-57 -153h160z" />
<glyph unicode="B" horiz-adv-x="539" d="M510 198q0 -35 -13 -70.5t-41.5 -64t-73 -46t-106.5 -17.5h-209v659h210q48 0 84 -14.5t59.5 -37.5t35 -52.5t11.5 -59.5q0 -43 -20.5 -80t-61.5 -57v-1q55 -13 90 -56.5t35 -102.5zM346 472q0 38 -24 61.5t-75 23.5h-59v-172h72q16 0 31.5 6.5t27.5 17.5t19.5 27t7.5 36 zM386 198q0 38 -30 62t-86 24h-82v-182h77q61 0 91 25.5t30 70.5z" />
<glyph unicode="C" horiz-adv-x="608" d="M582 52q-55 -33 -107.5 -47.5t-106.5 -14.5q-79 0 -140.5 25.5t-104 70.5t-65 105.5t-22.5 131.5t25.5 133t72 108.5t112.5 73.5t147 27q53 0 97.5 -9.5t73.5 -26.5l-1 -110q-42 25 -82 36t-85 11q-57 0 -100 -19.5t-71.5 -51.5t-43 -75t-14.5 -89q0 -50 15 -93t43.5 -75 t69.5 -50t92 -18q45 0 84.5 12t77.5 32z" />
<glyph unicode="D" horiz-adv-x="668" d="M632 335q0 -74 -25.5 -135.5t-73.5 -106t-117.5 -69t-156.5 -24.5h-192v659h200q90 0 158 -23.5t114 -66t69.5 -102.5t23.5 -132zM503 333q0 49 -15 90.5t-44.5 71t-74.5 46t-105 16.5h-76v-455h77q65 0 110 19t73.5 51t41.5 73.5t13 87.5z" />
<glyph unicode="E" horiz-adv-x="475" d="M67 0v659h367l-33 -101h-213v-171h213v-101h-213v-185h246v-101h-367z" />
<glyph unicode="F" horiz-adv-x="467" d="M402 558h-214v-174h211l1 -100h-212v-284h-121v659h368z" />
<glyph unicode="G" horiz-adv-x="681" d="M624 52q-45 -25 -110 -43.5t-145 -18.5q-77 0 -139 25.5t-105 70.5t-66 105.5t-23 130.5q0 73 26.5 136t74.5 109t115.5 72t150.5 26q63 0 110.5 -10.5t83.5 -23.5l-2 -113q-38 20 -83 33.5t-97 13.5q-65 0 -111.5 -18.5t-76.5 -50.5t-44.5 -74t-14.5 -90q0 -52 16 -96 t45.5 -76.5t72.5 -51t97 -18.5q33 0 59.5 5t44.5 13v224h121v-280z" />
<glyph unicode="H" horiz-adv-x="695" d="M507 0v282h-319v-282h-121v659h121v-272h319v272h121v-659h-121z" />
<glyph unicode="I" horiz-adv-x="255" d="M67 0v659h121v-659h-121z" />
<glyph unicode="J" horiz-adv-x="331" d="M265 24q0 -46 -10 -84t-32.5 -65t-59.5 -41.5t-91 -14.5q-23 0 -46 4t-42 11l24 92q13 -5 30 -7t32 -2q24 0 39 9t22.5 26t10 41t2.5 53v613h121v-635z" />
<glyph unicode="K" horiz-adv-x="578" d="M424 0l-234 288h-2v-288h-121v659h120v-281h2l224 279h141l-262 -317l280 -340h-148z" />
<glyph unicode="L" horiz-adv-x="432" d="M67 0v659h121v-557h236v-102h-357z" />
<glyph unicode="M" horiz-adv-x="797" d="M610 0v392v34.5t2 36.5h-1q-7 -16 -19.5 -36t-20.5 -32l-135 -212h-60l-148 215q-10 14 -20 29t-20 36h-2q2 -20 2 -36.5v-31.5v-395h-121v659h113l182 -264q14 -20 24.5 -36.5t19.5 -33.5h2q8 16 17.5 33.5t23.5 39.5l168 261h114v-659h-121z" />
<glyph unicode="N" horiz-adv-x="729" d="M550 0l-298 386q-21 28 -36 48.5t-29 41.5h-2q2 -17 2.5 -41t0.5 -47v-388h-121v659h123l287 -371q23 -30 38 -51t27 -41h2q-2 22 -2 48v48v367h120v-659h-112z" />
<glyph unicode="O" horiz-adv-x="745" d="M709 329q0 -73 -24 -136t-70 -108q-45 -45 -106 -70t-136 -25q-144 0 -233 81q-51 45 -77.5 109.5t-26.5 142.5q0 74 24.5 136.5t70.5 109.5q45 45 106 70.5t136 25.5q80 0 144 -26.5t109 -75.5q42 -45 62.5 -105t20.5 -129zM580 327q0 54 -15 98t-42 74.5t-65.5 47.5 t-85.5 17q-46 0 -84.5 -16t-66 -47t-43 -75t-15.5 -99q0 -56 15.5 -100t43 -75t66 -47t84.5 -16t84 16t65.5 47t43 75t15.5 100z" />
<glyph unicode="P" horiz-adv-x="502" d="M473 447q0 -35 -13 -73t-43 -70t-78 -53t-118 -21h-33v-230h-121v659h169q54 0 97.5 -13.5t74.5 -40.5t48 -66.5t17 -91.5zM351 444q0 48 -31.5 80.5t-95.5 32.5h-36v-232h38q65 0 95 32t30 87z" />
<glyph unicode="Q" horiz-adv-x="745" d="M709 328q0 -72 -23.5 -135t-69.5 -108q-37 -37 -84 -61t-105 -32q28 -26 59 -42.5t73 -16.5q19 0 37 3.5t33 8.5l27 -83q-28 -13 -61 -18t-68 -5q-43 0 -79.5 13t-68 35.5t-58 51t-48.5 60.5q-39 11 -73 28.5t-61 43.5q-50 46 -76.5 110t-26.5 141q0 74 25 137t70 110 q45 45 106 70.5t136 25.5q77 0 138.5 -24.5t106.5 -69.5t68 -107.5t23 -135.5zM581 325q0 54 -15 98.5t-42 75.5t-65.5 48t-85.5 17t-85.5 -16.5t-66 -47t-43 -75t-15.5 -100.5t15.5 -99.5t43 -74.5t66 -47t85.5 -16q46 0 84 16t65.5 47t43 74.5t15.5 99.5z" />
<glyph unicode="R" horiz-adv-x="563" d="M417 0l-115.5 190.5t-57.5 69.5h-56v-260h-121v659h178q64 0 109 -15t73 -40.5t40.5 -59t12.5 -71.5q0 -33 -10.5 -60.5t-27.5 -49.5t-39 -37.5t-45 -25.5v-1q11 -6 29 -30t43 -63t56 -91t69 -115h-138zM358 459q0 41 -26.5 69.5t-83.5 28.5h-60v-205h61q23 0 43 8.5 t34.5 22.5t23 33.5t8.5 42.5z" />
<glyph unicode="S" horiz-adv-x="501" d="M469 179q0 -44 -18 -78.5t-49.5 -59.5t-73.5 -38t-91 -13q-70 0 -120 18.5t-83 41.5l49 89q27 -19 64.5 -34.5t84.5 -15.5q19 0 38.5 4t35 13t25.5 23.5t10 35.5q0 35 -26.5 58.5t-64 43.5t-78.5 42.5t-71 56.5q-20 22 -31.5 51t-11.5 67q0 37 14 69.5t41.5 57.5 t67.5 39.5t92 14.5q53 0 94 -11t68 -26l-2 -108q-38 21 -75.5 33.5t-78.5 12.5q-40 0 -67.5 -17t-27.5 -50q0 -31 21 -52t53 -39.5t68.5 -37.5t68.5 -44t53 -60.5t21 -86.5z" />
<glyph unicode="T" horiz-adv-x="539" d="M508 558h-180v-558h-122v558h-191v101h522z" />
<glyph unicode="U" horiz-adv-x="684" d="M615 248q0 -57 -16 -104t-50 -81q-35 -35 -86.5 -54t-125.5 -19q-138 0 -205 65q-35 34 -50 83t-15 104v417h121v-409q0 -73 39 -116q38 -41 112 -41q42 0 71.5 10.5t48.5 30.5t27 47.5t8 62.5v415h121v-411z" />
<glyph unicode="V" horiz-adv-x="658" d="M362 -4h-87l-267 662h132l143 -372l22 -60t20 -57h2q9 26 19 54t24 60l157 375h124z" />
<glyph unicode="W" horiz-adv-x="949" d="M717 -4h-100l-105 291q-8 22 -16.5 46t-14.5 48h-3q-6 -25 -14 -48.5t-16 -44.5l-107 -292h-98l-235 663h134l129 -397q8 -23 14 -45.5t12 -46.5h3q12 44 29 91l95 275l-43 123h121l134 -388q10 -27 18 -50.5t15 -47.5h2q6 24 12 47t14 49l121 390h124z" />
<glyph unicode="X" horiz-adv-x="620" d="M394 329l212 -329h-138l-158 249l-167 -249h-135l231 337l-203 322h136l151 -240l159 240h132z" />
<glyph unicode="Y" horiz-adv-x="586" d="M354 260v-260h-121v262l-225 397h133l104 -191q13 -23 27 -49t25 -49h2q11 23 24 48.5t25 48.5l104 192h127z" />
<glyph unicode="Z" horiz-adv-x="573" d="M26 0l332 561l-287 -2l-30 100h506l-325 -560l327 2v-101h-523z" />
<glyph unicode="[" horiz-adv-x="304" d="M69 -234v1007h213v-93h-100v-821h100v-93h-213z" />
<glyph unicode="\" horiz-adv-x="399" d="M267 -35l-255 731h121l254 -731h-120z" />
<glyph unicode="]" horiz-adv-x="304" d="M22 -234v93h100v821h-100v93h213v-1007h-213z" />
<glyph unicode="^" horiz-adv-x="536" d="M368 287l-81 210l-18 56h-2l-18 -56l-81 -210h-104l155 372h98l155 -372h-104z" />
<glyph unicode="_" horiz-adv-x="450" d="M0 -124v60h450v-60h-450z" />
<glyph unicode="`" horiz-adv-x="557" d="M297 531l-126 147h137l85 -147h-96z" />
<glyph unicode="a" horiz-adv-x="494" d="M346 0l-20 42q-23 -21 -56 -36.5t-81 -15.5q-33 0 -61 10.5t-49 30.5t-33 48t-12 63q0 74 53.5 113t144.5 42l84 3v12q0 43 -26 61.5t-64 18.5q-39 0 -69 -10.5t-53 -24.5l-39 75q48 32 92.5 42t92.5 10q88 0 138 -39.5t50 -132.5v-187q0 -51 2 -79.5t7 -45.5h-101z M316 217l-68 -2q-49 -2 -71.5 -18t-22.5 -46q0 -29 19.5 -47.5t57.5 -18.5q32 0 52.5 9.5t32.5 20.5v102z" />
<glyph unicode="b" horiz-adv-x="528" d="M494 254q0 -62 -22.5 -111t-61 -83t-90 -52t-108.5 -18q-96 0 -156 34v684h120v-238q21 6 43.5 10t48.5 4q44 0 84.5 -14.5t72 -43t50.5 -71.5t19 -101zM374 244q0 28 -9 53t-26 44t-41 30.5t-55 11.5q-23 0 -38.5 -5t-28.5 -10v-271q14 -5 27.5 -7t31.5 -2q30 0 55.5 12 t44 33t29 49.5t10.5 61.5z" />
<glyph unicode="c" horiz-adv-x="446" d="M435 41q-29 -20 -73.5 -35.5t-93.5 -15.5q-58 0 -101.5 19.5t-73 52.5t-44 77.5t-14.5 94.5q0 54 18.5 100t51 79t77.5 52t98 19q48 0 81.5 -10t53.5 -23l-2 -98q-25 19 -53.5 29t-65.5 10q-30 0 -55.5 -11.5t-44 -31.5t-29 -48t-10.5 -61q0 -30 8.5 -58t25.5 -49 t43 -33.5t61 -12.5q34 0 60.5 9.5t51.5 23.5z" />
<glyph unicode="d" horiz-adv-x="530" d="M477 28q-34 -17 -79 -27.5t-106 -10.5q-53 0 -99.5 15.5t-81.5 46t-55.5 76t-20.5 105.5q0 55 19.5 101t54 79.5t83 52t105.5 18.5q37 0 60 -4v228h120v-680zM357 382q-12 3 -24 5t-32 2q-64 0 -105 -40t-41 -110q0 -32 10 -59.5t29.5 -47.5t46.5 -31.5t62 -11.5 q14 0 28.5 2t25.5 5v286z" />
<glyph unicode="e" horiz-adv-x="496" d="M157 205q1 -26 11.5 -48t28.5 -38t42 -24.5t51 -8.5q34 0 63 8t60 25l29 -77q-40 -28 -85 -40t-87 -12q-62 0 -106.5 20.5t-73 55t-42 79t-13.5 92.5q0 51 14.5 95.5t42.5 78.5t67.5 53.5t90.5 19.5q48 0 87 -17.5t67 -49.5t43 -77t15 -100v-35h-305zM338 290 q-1 19 -6.5 37.5t-17 33.5t-28 24t-39.5 9q-22 0 -39 -9t-29 -23.5t-18.5 -33.5t-6.5 -38h184z" />
<glyph unicode="f" horiz-adv-x="347" d="M330 599q-31 13 -60 13q-56 0 -56 -64v-75h125l-31 -92h-94v-381h-120v381h-69v92h69v66q0 52 17 85t42 52t54 25.5t54 6.5q19 0 44.5 -5t48.5 -16z" />
<glyph unicode="g" horiz-adv-x="504" d="M498 -79q0 -31 -16 -59.5t-48 -50t-81 -34.5t-116 -13q-53 0 -95 11t-71 30.5t-44 44.5t-15 54q0 41 25.5 69t61.5 44q-17 9 -24.5 26t-7.5 33q0 22 15 45.5t45 42.5q-38 20 -60 60t-22 85q0 34 12.5 65.5t37.5 56.5t61.5 40t84.5 15q29 0 51.5 -6t38.5 -15q7 -4 12 3 q21 19 55.5 31t93.5 6l-25 -89q-19 4 -36 5t-31 -5q21 -23 33 -50.5t12 -68.5q0 -39 -15.5 -70t-42 -53.5t-61.5 -34.5t-75 -12q-19 0 -34 2t-30 7q-6 -10 -9 -18.5t-3 -19.5q0 -18 24 -26t60 -13t77.5 -11t77.5 -20t60 -39t24 -68zM327 306q0 33 -23.5 60.5t-65.5 27.5 q-33 0 -56 -21t-23 -62q0 -38 22 -65t62 -27q35 0 59.5 21.5t24.5 65.5zM367 -92q0 23 -25.5 34.5t-60.5 18.5t-70.5 11.5t-55.5 12.5q-12 -8 -26 -22.5t-14 -39.5q0 -30 35 -52t97 -22q52 0 86 15.5t34 43.5z" />
<glyph unicode="h" horiz-adv-x="536" d="M363 0v276q0 20 -2.5 38.5t-10 33t-21.5 23t-38 8.5q-31 0 -61 -15t-54 -35v-329h-120v708h120v-286q33 27 72 44.5t85 17.5q27 0 54 -7.5t48.5 -27t35 -53.5t13.5 -86v-310h-121z" />
<glyph unicode="i" horiz-adv-x="260" d="M205 619q0 -30 -21.5 -51.5t-53.5 -21.5q-31 0 -52.5 21t-21.5 52q0 29 21.5 50.5t52.5 21.5q32 0 53.5 -21t21.5 -51zM70 0v473h120v-473h-120z" />
<glyph unicode="j" horiz-adv-x="270" d="M217 619q0 -30 -21 -51.5t-53 -21.5t-53 21t-21 52q0 29 21 50.5t53 21.5t53 -21t21 -51zM202 -58q0 -48 -13 -82t-35 -55.5t-49.5 -31t-56.5 -9.5q-27 0 -51.5 5t-49.5 17l23 85q15 -6 27.5 -9.5t27.5 -3.5q35 0 46.5 26t11.5 68v521h119v-531z" />
<glyph unicode="k" horiz-adv-x="485" d="M346 0l-168 220h-2v-220h-120v708h120v-396h2l152 161h139l-194 -203l211 -270h-140z" />
<glyph unicode="l" horiz-adv-x="270" d="M258 14q-26 -14 -49.5 -19t-43.5 -5q-59 0 -84 30t-25 74v614h120v-561q0 -26 6.5 -37.5t25.5 -11.5q6 0 14 1t21 4z" />
<glyph unicode="m" horiz-adv-x="832" d="M660 0v287q0 20 -2.5 37.5t-10 30t-21 20t-35.5 7.5q-32 0 -61.5 -14.5t-52.5 -33.5q1 -3 1 -7.5v-9.5v-317h-120v285q0 20 -2.5 37.5t-10 31t-20.5 21t-35 7.5q-32 0 -61.5 -14.5t-52.5 -33.5v-334h-120v473h101l12 -52q39 30 79 46.5t82 16.5q45 0 76 -19t48 -52 q42 35 86 53t83 18q30 0 58.5 -8t50 -27t34.5 -50.5t13 -77.5v-321h-119z" />
<glyph unicode="n" horiz-adv-x="539" d="M366 0v278q0 18 -2.5 36.5t-10 33.5t-21 24t-36.5 9q-32 0 -62 -14.5t-58 -35.5v-331h-120v473h102l13 -51q38 29 78 45.5t88 16.5q27 0 53.5 -8.5t48 -28.5t34.5 -52.5t13 -80.5v-314h-120z" />
<glyph unicode="o" horiz-adv-x="544" d="M509 238q0 -54 -17 -100.5t-50 -79.5q-32 -32 -74.5 -50t-96.5 -18q-50 0 -91 15t-72 44q-35 33 -54 80.5t-19 104.5q0 56 18 102.5t51 80.5q32 32 74 49.5t94 17.5q55 0 98.5 -18t75.5 -50q63 -68 63 -178zM386 237q0 69 -30 110.5t-86 41.5q-57 0 -85 -43t-28 -109 q0 -69 30.5 -111.5t85.5 -42.5q56 0 84.5 43.5t28.5 110.5z" />
<glyph unicode="p" horiz-adv-x="529" d="M495 244q0 -56 -19 -102.5t-52.5 -80.5t-79.5 -52.5t-100 -18.5q-35 0 -68 11v-237h-120v688q37 13 81.5 22.5t102.5 9.5q63 0 110.5 -17t80 -48t48.5 -75.5t16 -99.5zM370 238q0 37 -11 65t-29.5 46t-44 27t-54.5 9q-17 0 -30 -2t-25 -5v-281q15 -5 29 -8.5t33 -3.5 q63 0 97.5 42t34.5 111z" />
<glyph unicode="q" horiz-adv-x="534" d="M362 -236v259q-21 -14 -52.5 -23.5t-66.5 -9.5q-37 0 -74 14t-67 43t-48.5 73.5t-18.5 105.5t22 109t60 81t89 50.5t110 17.5q45 0 89.5 -9.5t76.5 -23.5v-687h-120zM362 379q-14 4 -28.5 6t-31.5 2q-34 0 -61 -12t-46 -32t-29 -47.5t-10 -57.5q0 -36 9.5 -63.5t26 -46 t39 -28t47.5 -9.5q26 0 48 9.5t36 17.5v261z" />
<glyph unicode="r" horiz-adv-x="363" d="M323 362q-15 9 -30 12t-26 3q-21 0 -44 -10t-47 -32v-335h-120v473h101l13 -50q37 32 67 46.5t64 14.5q17 0 34.5 -5t31.5 -15z" />
<glyph unicode="s" horiz-adv-x="418" d="M387 137q0 -40 -16 -68t-43 -45.5t-62 -25.5t-72 -8q-59 0 -101.5 12.5t-73.5 31.5l39 88q26 -18 59 -30t68 -12q37 0 59 13t22 37q0 21 -16 34t-40.5 23.5t-52.5 21t-52.5 27.5t-40.5 42.5t-16 65.5q0 62 46.5 101t132.5 39q45 0 78 -6.5t61 -17.5v-100 q-31 12 -63.5 21.5t-70.5 9.5q-32 0 -49.5 -10t-17.5 -31q0 -19 16.5 -30.5t41 -21.5t53.5 -21.5t53.5 -28.5t41 -43.5t16.5 -67.5z" />
<glyph unicode="t" horiz-adv-x="385" d="M375 41q-37 -26 -80.5 -38.5t-78.5 -12.5q-63 0 -90 31.5t-27 79.5v282h-84v90h84v109l120 36v-145h147l-35 -90h-112v-238q0 -54 45 -54q23 0 44 8.5t35 17.5z" />
<glyph unicode="u" horiz-adv-x="534" d="M382 0l-21 47q-25 -23 -61 -40t-84 -17q-23 0 -51 7.5t-52 27.5t-40.5 56t-16.5 93v299h120v-292q0 -45 20.5 -70.5t64.5 -25.5q29 0 52.5 12.5t38.5 26.5v349h120v-342q0 -55 1.5 -84t7.5 -47h-99z" />
<glyph unicode="v" horiz-adv-x="487" d="M285 -3h-87l-194 476h123l118 -322h2l120 322h116z" />
<glyph unicode="w" horiz-adv-x="751" d="M573 -3h-91l-107 322h-2l-107 -322h-91l-171 476h122l101 -320h2l104 320h92l105 -321h3l99 321h115z" />
<glyph unicode="x" horiz-adv-x="490" d="M354 0l-114 169l-110 -169h-126l169 243l-156 230h133l104 -163l106 163h125l-162 -236l163 -237h-132z" />
<glyph unicode="y" horiz-adv-x="523" d="M333 -18q-27 -72 -55 -115.5t-56.5 -66t-59 -29.5t-61.5 -7q-34 0 -61.5 5.5t-50.5 16.5l30 91q19 -9 36 -13.5t40 -4.5q18 0 35 7t33 24t31 44.5t28 68.5l-216 470h127l147 -336h3l114 336h118z" />
<glyph unicode="z" horiz-adv-x="413" d="M14 0l217 382l-178 -3l-26 94h379l-212 -381l212 3v-95h-392z" />
<glyph unicode="{" horiz-adv-x="359" d="M304 -227q-53 4 -89.5 18.5t-59 38t-32 54t-9.5 66.5q0 13 0.5 39.5t1 58t1 63.5t0.5 56t-6 37t-15.5 19.5t-20.5 8t-21 1.5v80q10 0 21 1.5t20.5 8t15.5 19.5t6 37t-0.5 56t-1 63.5t-1 57.5t-0.5 40q0 36 9.5 66.5t32 54t59 38t89.5 18.5l21 -107q-46 -5 -67 -25 t-20 -64q0 -9 0.5 -34t0.5 -53.5t0.5 -54.5t0.5 -36q0 -33 -6.5 -55.5t-17 -37.5t-24.5 -22.5t-28 -9.5v-2q14 -2 28 -9.5t24.5 -22.5t17 -37.5t6.5 -55.5q0 -11 -0.5 -36.5t-0.5 -54t-0.5 -53.5t-0.5 -34q-1 -44 20 -64t67 -25z" />
<glyph unicode="|" horiz-adv-x="281" d="M82 -236v1016h117v-1016h-117z" />
<glyph unicode="}" horiz-adv-x="359" d="M305 233q-10 0 -21 -1.5t-20.5 -8t-15.5 -19.5t-6 -37t0.5 -56t1 -63.5t1 -58t0.5 -39.5q0 -36 -9.5 -66.5t-32 -54t-58.5 -38t-89 -18.5l-22 107q47 5 67.5 25t20.5 64q0 9 -0.5 34t-1 53.5t-1 54t-0.5 36.5q0 33 6.5 55.5t17 37.5t24.5 22.5t28 9.5v2q-14 2 -28 9.5 t-24.5 22.5t-17 37.5t-6.5 55.5q0 10 0.5 36t1 54.5t1 53.5t0.5 34q0 44 -20.5 64t-67.5 25l22 107q53 -4 89 -18.5t58.5 -38t32 -54t9.5 -66.5q0 -14 -0.5 -40t-1 -57.5t-1 -63.5t-0.5 -56t6 -37t15.5 -19.5t20.5 -8t21 -1.5v-80z" />
<glyph unicode="~" horiz-adv-x="582" d="M528 241q-45 -29 -79.5 -42.5t-66.5 -13.5q-19 0 -37.5 4t-39.5 12l-50 19q-33 14 -58 14q-23 0 -46.5 -10.5t-54.5 -30.5l-42 82q45 29 79.5 42t66.5 13q37 0 76 -16l50 -19q17 -6 31 -9.5t28 -3.5q23 0 46.5 10t54.5 30z" />
<glyph unicode="&#xa1;" horiz-adv-x="273" d="M207 413q0 -31 -20.5 -51.5t-49.5 -20.5t-49.5 20.5t-20.5 51.5q0 30 20.5 50.5t49.5 20.5t49.5 -20.5t20.5 -50.5zM77 -189v52q0 93 1 154.5t4 106.5t8 81t13 78h67q8 -42 13 -77.5t8 -80.5t4 -106.5t1 -154.5v-53h-119z" />
<glyph unicode="&#xa2;" d="M461 149q-22 -17 -56 -29.5t-74 -17.5v-100h-89v105q-39 9 -70 29.5t-52 50t-32.5 65.5t-11.5 76t12 76t34 65.5t53.5 51t70.5 32.5v100h89v-90q39 -2 65.5 -9.5t42.5 -17.5v-96q-48 33 -112 33q-32 0 -57.5 -10.5t-43.5 -29.5t-28 -44t-10 -54q0 -64 37 -101.5t97 -37.5 q34 0 60 7.5t48 21.5z" />
<glyph unicode="&#xa3;" d="M469 546q-17 10 -39 16.5t-46 6.5q-23 0 -44 -7t-37 -23t-25.5 -41.5t-9.5 -61.5v-49h187l-33 -100h-154q0 -23 -2.5 -50.5t-8.5 -55t-17 -51.5t-29 -39v-1q23 5 51 8t69 3h160v-101h-432v79q33 7 51 33.5t26.5 58.5t10 64t1.5 52h-69v100h69v57q0 70 23 113t56.5 67 t72 32.5t69.5 8.5q42 0 74 -9t52 -19z" />
<glyph unicode="&#xa4;" horiz-adv-x="504" d="M498 -79q0 -31 -16 -59.5t-48 -50t-81 -34.5t-116 -13q-53 0 -95 11t-71 30.5t-44 44.5t-15 54q0 41 25.5 69t61.5 44q-17 9 -24.5 26t-7.5 33q0 22 15 45.5t45 42.5q-38 20 -60 60t-22 85q0 34 12.5 65.5t37.5 56.5t61.5 40t84.5 15q29 0 51.5 -6t38.5 -15q7 -4 12 3 q21 19 55.5 31t93.5 6l-25 -89q-19 4 -36 5t-31 -5q21 -23 33 -50.5t12 -68.5q0 -39 -15.5 -70t-42 -53.5t-61.5 -34.5t-75 -12q-19 0 -34 2t-30 7q-6 -10 -9 -18.5t-3 -19.5q0 -18 24 -26t60 -13t77.5 -11t77.5 -20t60 -39t24 -68zM327 306q0 33 -23.5 60.5t-65.5 27.5 q-33 0 -56 -21t-23 -62q0 -38 22 -65t62 -27q35 0 59.5 21.5t24.5 65.5zM367 -92q0 23 -25.5 34.5t-60.5 18.5t-70.5 11.5t-55.5 12.5q-12 -8 -26 -22.5t-14 -39.5q0 -30 35 -52t97 -22q52 0 86 15.5t34 43.5zM372 656q0 -56 -31.5 -84t-86.5 -28h-9q-54 0 -83.5 28 t-29.5 84h60q2 -20 15.5 -32t36.5 -12h14q24 0 38 12t15 32h61z" />
<glyph unicode="&#xa5;" d="M374 342h122v-80h-168v-71h168v-80h-168v-111h-121v111h-172v80h172v71h-172v80h127l-179 317h133l103 -191q13 -23 26.5 -49t24.5 -49h2q11 23 24 48.5t25 48.5l105 192h127z" />
<glyph unicode="&#xa7;" horiz-adv-x="550" d="M507 267q0 -47 -25 -84t-63 -58q23 -22 39 -50t16 -65q0 -44 -17 -77t-47 -54.5t-70.5 -32t-86.5 -10.5q-66 0 -115.5 17.5t-75.5 37.5l48 87q25 -16 61.5 -30t79.5 -14q20 0 38.5 3.5t33 12t23 21.5t8.5 31q0 29 -21.5 48.5t-53.5 35.5t-69.5 32t-69.5 38.5t-53.5 55 t-21.5 80.5q0 46 22 82.5t60 59.5q-23 20 -38 50.5t-15 72.5q0 37 13.5 68t39 53t61 34t79.5 12q60 0 101 -12t64 -24l-2 -107q-36 20 -74 32t-80 12q-38 0 -62 -15.5t-24 -45.5q0 -29 22 -49t55 -37t71.5 -34t71.5 -40t55 -56t22 -81zM399 245q0 26 -18 46t-45.5 36.5 t-61.5 32t-66 32.5q-17 -12 -28 -29t-11 -44t17.5 -47.5t45 -38t61 -33t64.5 -32.5q18 14 30 33.5t12 43.5z" />
<glyph unicode="&#xa8;" horiz-adv-x="378" d="M345 608q0 -27 -18 -45.5t-44 -18.5t-44.5 18.5t-18.5 45.5q0 26 18.5 44.5t44.5 18.5t44 -18.5t18 -44.5zM158 608q0 -27 -18.5 -45.5t-44.5 -18.5t-44 18.5t-18 45.5q0 26 18 44.5t44 18.5t44.5 -18.5t18.5 -44.5z" />
<glyph unicode="&#xa9;" horiz-adv-x="775" d="M719 327q0 -72 -25.5 -134t-70 -107t-105.5 -70.5t-133 -25.5q-74 0 -135 25.5t-104 70.5t-66.5 107t-23.5 134t24 134t67.5 107t104.5 70.5t135 25.5q72 0 132.5 -25.5t105 -70.5t69.5 -107t25 -134zM646 327q0 59 -20 109.5t-54.5 87t-82 57t-102.5 20.5t-102 -20.5 t-81.5 -57t-54.5 -87t-20 -109.5t20 -109.5t54.5 -87t81.5 -57t102 -20.5t102.5 20.5t82 57t54.5 87t20 109.5zM514 157q-31 -17 -62 -25t-63 -8q-40 0 -74 15t-58.5 41.5t-38 63t-13.5 79.5t14.5 80.5t40.5 65t62.5 43.5t80.5 16q35 0 61 -7.5t40 -15.5v-74 q-22 13 -46.5 21.5t-56.5 8.5q-56 0 -88 -37.5t-32 -97.5q0 -61 32 -98.5t86 -37.5q29 0 51 7t42 18z" />
<glyph unicode="&#xaa;" horiz-adv-x="384" d="M257 350l-13 28q-14 -14 -36.5 -24t-54.5 -10q-44 0 -74 26t-30 71q0 49 34.5 74.5t91.5 27.5l62 2v7q0 26 -18.5 36t-40.5 10q-24 0 -45 -8t-38 -16l-26 54q27 17 59.5 26t64.5 9q56 0 92 -25.5t36 -85.5v-121q0 -33 1 -51.5t5 -29.5h-70zM237 489l-49 -1 q-55 -3 -55 -40q0 -17 11 -28.5t33 -11.5q19 0 35.5 6t24.5 12v63z" />
<glyph unicode="&#xab;" horiz-adv-x="601" d="M449 11l-170 230l170 232l96 -52l-134 -180l134 -178zM208 11l-170 230l170 232l96 -52l-134 -180l134 -178z" />
<glyph unicode="&#xac;" horiz-adv-x="592" d="M418 75v199h-358v102h471v-301h-113z" />
<glyph unicode="&#xae;" horiz-adv-x="580" d="M524 429q0 -51 -18 -94t-50 -75t-75 -50t-93 -18q-52 0 -94.5 18t-73 50t-47.5 75t-17 94t17 94t47.5 75t73.5 50t95 18q50 0 93 -18t74.5 -50t49.5 -75t18 -94zM463 429q0 39 -13 73.5t-36.5 59.5t-55.5 39.5t-70 14.5t-70.5 -14.5t-56 -39.5t-36.5 -59.5t-13 -73.5 t13 -73.5t36.5 -59.5t56 -39.5t70.5 -14.5t70 14.5t55.5 39.5t36.5 59.5t13 73.5zM334 300q-29 49 -45 77.5t-24 28.5h-9v-106h-53v264h81q44 0 66.5 -20.5t22.5 -51.5q0 -16 -6 -28t-14.5 -20.5t-18.5 -14t-19 -8.5v-1q4 -1 12.5 -11t19.5 -26.5t23.5 -38t25.5 -44.5h-62z M317 487q0 19 -12 26.5t-35 7.5h-14v-73h12q20 0 34.5 9.5t14.5 29.5z" />
<glyph unicode="&#xaf;" horiz-adv-x="379" d="M56 569v68h268v-68h-268z" />
<glyph unicode="&#xb0;" horiz-adv-x="371" d="M341 506q0 -33 -12 -61t-33 -48.5t-49.5 -32t-62.5 -11.5t-62 11.5t-48.5 32t-32 48.5t-11.5 61t11.5 61t32 48.5t49 32t62.5 11.5t62.5 -11.5t49.5 -32t32.5 -48.5t11.5 -61zM257 505q0 33 -20.5 54.5t-51.5 21.5q-30 0 -50.5 -21.5t-20.5 -54.5t20.5 -54t50.5 -21 q31 0 51.5 21t20.5 54z" />
<glyph unicode="&#xb1;" horiz-adv-x="591" d="M353 284v-133h-113v133h-180v102h180v133h113v-133h178v-102h-178zM60 0v102h471v-102h-471z" />
<glyph unicode="&#xb4;" horiz-adv-x="557" d="M266 531h-95l84 147h137z" />
<glyph unicode="&#xb5;" d="M386 0l-21 47q-29 -27 -63 -42t-66 -15q-18 0 -34 4.5t-24 12.5h-2q3 -29 3.5 -59t0.5 -61v-123h-120v709h120v-292q0 -45 20.5 -70.5t64.5 -25.5q29 0 52.5 12.5t38.5 26.5v349h120v-348q0 -51 2 -79t7 -46h-99z" />
<glyph unicode="&#xb6;" horiz-adv-x="623" d="M451 -160v740h-95v-740h-99v390h-6q-43 0 -80 17t-64.5 46t-43.5 68t-16 83q0 45 16 84t43.5 68t64.5 46t80 17h299v-819h-99z" />
<glyph unicode="&#xb7;" horiz-adv-x="231" d="M184 251q0 -30 -20 -50.5t-49 -20.5t-49.5 20.5t-20.5 50.5q0 31 20.5 51.5t49.5 20.5t49 -20.5t20 -51.5z" />
<glyph unicode="&#xb8;" horiz-adv-x="487" d="M319 -105q0 -20 -10 -34.5t-26 -23.5t-34.5 -13.5t-36.5 -4.5q-26 0 -41.5 4t-30.5 11l17 46q9 -5 20.5 -8.5t25.5 -3.5t25.5 5.5t11.5 19.5t-12 19t-37 7l-25 1l25 80h72l-14 -42q12 -1 24 -4t22.5 -10t17 -19t6.5 -30z" />
<glyph unicode="&#xba;" horiz-adv-x="400" d="M352 503q0 -38 -13 -69.5t-35 -53.5q-19 -18 -46.5 -27t-59.5 -9q-33 0 -59 10t-45 28q-45 45 -45 121q0 38 12 68.5t33 51.5q40 40 107 40q35 0 63 -11t47 -32q20 -21 30.5 -50.5t10.5 -66.5zM269 503q0 43 -18.5 68t-49.5 25q-30 0 -49 -24t-19 -68q0 -42 18.5 -67 t50.5 -25q30 0 48.5 24t18.5 67z" />
<glyph unicode="&#xbb;" horiz-adv-x="601" d="M394 11l-96 52l134 178l-134 180l96 52l170 -232zM153 11l-96 52l134 178l-134 180l96 52l170 -232z" />
<glyph unicode="&#xbf;" horiz-adv-x="475" d="M329 413q0 -31 -20 -51.5t-49 -20.5t-49.5 20.5t-20.5 51.5q0 30 20.5 50.5t49.5 20.5t49 -20.5t20 -50.5zM425 -124q-48 -43 -98.5 -63t-103.5 -20q-89 0 -134 42t-45 106q0 35 15.5 63t38.5 51.5t50 43t50 37.5t38.5 34.5t15.5 34.5q0 13 -4.5 22.5t-11.5 20.5l98 40 q36 -41 36 -91q0 -28 -14.5 -51.5t-36 -43.5t-47 -38t-47 -36t-36 -36.5t-14.5 -40.5q0 -28 18 -44t50 -16q64 0 128 58z" />
<glyph unicode="&#xc0;" horiz-adv-x="626" d="M286 696l-126 147h137l85 -147h-96zM489 0l-65 165h-235l-61 -165h-119l256 662h88l265 -662h-129zM333 415q-17 47 -25 82h-1q-3 -17 -9.5 -37t-14.5 -43l-57 -153h160z" />
<glyph unicode="&#xc1;" horiz-adv-x="626" d="M337 696h-96l85 147h137zM489 0l-65 165h-235l-61 -165h-119l256 662h88l265 -662h-129zM333 415q-17 47 -25 82h-1q-3 -17 -9.5 -37t-14.5 -43l-57 -153h160z" />
<glyph unicode="&#xc2;" horiz-adv-x="626" d="M364 696l-54 78l-51 -78h-98l102 147h96l104 -147h-99zM489 0l-65 165h-235l-61 -165h-119l256 662h88l265 -662h-129zM333 415q-17 47 -25 82h-1q-3 -17 -9.5 -37t-14.5 -43l-57 -153h160z" />
<glyph unicode="&#xc3;" horiz-adv-x="626" d="M489 0l-65 165h-235l-61 -165h-119l256 662h88l265 -662h-129zM454 806q0 -40 -20.5 -62.5t-54.5 -22.5q-15 0 -28.5 3.5t-32.5 11.5l-21 9q-11 5 -21.5 9t-20.5 4q-22 0 -22 -25v-8h-63v23q0 42 20.5 64t54.5 22q14 0 28 -3.5t32 -11.5l22 -9q11 -5 21.5 -9t20.5 -4 q22 0 22 25v8h63v-24zM333 415q-17 47 -25 82h-1q-3 -17 -9.5 -37t-14.5 -43l-57 -153h160z" />
<glyph unicode="&#xc4;" horiz-adv-x="626" d="M471 765q0 -26 -18.5 -45t-44.5 -19t-44.5 19t-18.5 45t18.5 45t44.5 19t44.5 -19t18.5 -45zM283 765q0 -26 -18 -45t-44 -19t-44.5 19t-18.5 45t18.5 45t44.5 19t44 -19t18 -45zM489 0l-65 165h-235l-61 -165h-119l256 662h88l265 -662h-129zM333 415q-17 47 -25 82h-1 q-3 -17 -9.5 -37t-14.5 -43l-57 -153h160z" />
<glyph unicode="&#xc5;" horiz-adv-x="626" d="M490 0l-65 165h-234l-61 -165h-116l255 658q-27 11 -42 33.5t-15 54.5q0 45 28.5 71t74.5 26q45 0 73.5 -26t28.5 -71q0 -32 -16.5 -55t-43.5 -33l264 -658h-131zM356 747q0 23 -11 36t-31 13t-31.5 -13t-11.5 -36t11.5 -35.5t31.5 -12.5q21 0 31.5 12.5t10.5 35.5z M335 415q-17 47 -25 82h-1q-8 -35 -25 -80l-56 -153h159z" />
<glyph unicode="&#xc6;" horiz-adv-x="821" d="M467 0l-29 165h-217l-89 -165h-123l355 659h416l-33 -101h-253l29 -171h223v-101h-206l32 -185h208v-101h-313zM398 425q-3 17 -5 33t-4 37h-1l-16 -36t-16 -34l-80 -161h145z" />
<glyph unicode="&#xc7;" horiz-adv-x="608" d="M582 52q-53 -32 -103.5 -46t-101.5 -16l-11 -32q12 -1 24 -4t22.5 -10t17 -19t6.5 -30q0 -20 -10 -34.5t-26 -23.5t-34.5 -13.5t-36.5 -4.5q-26 0 -41.5 4t-30.5 11l17 46q9 -5 20.5 -8.5t25.5 -3.5t25.5 5.5t11.5 19.5t-12 19t-37 7l-25 1l24 75q-65 9 -115 38t-85 72 t-53 99t-18 119q0 71 25.5 133t72 108.5t112.5 73.5t148 27q53 0 97 -9.5t74 -26.5l-2 -110q-42 25 -82 36t-84 11q-57 0 -100 -19.5t-71.5 -51.5t-43 -75t-14.5 -89q0 -50 15 -93t43.5 -75t69 -50t91.5 -18q45 0 85 12t77 32z" />
<glyph unicode="&#xc8;" horiz-adv-x="475" d="M228 696l-126 147h137l85 -147h-96zM67 0v659h367l-33 -101h-213v-171h213v-101h-213v-185h246v-101h-367z" />
<glyph unicode="&#xc9;" horiz-adv-x="475" d="M268 696h-96l85 147h137zM67 0v659h367l-33 -101h-213v-171h213v-101h-213v-185h246v-101h-367z" />
<glyph unicode="&#xca;" horiz-adv-x="475" d="M298 696l-54 78l-52 -78h-97l101 147h97l104 -147h-99zM67 0v659h367l-33 -101h-213v-171h213v-101h-213v-185h246v-101h-367z" />
<glyph unicode="&#xcb;" horiz-adv-x="475" d="M403 765q0 -26 -18.5 -45t-44.5 -19t-44.5 19t-18.5 45t18.5 45t44.5 19t44.5 -19t18.5 -45zM215 765q0 -26 -18 -45t-44 -19t-44.5 19t-18.5 45t18.5 45t44.5 19t44 -19t18 -45zM67 0v659h367l-33 -101h-213v-171h213v-101h-213v-185h246v-101h-367z" />
<glyph unicode="&#xcc;" horiz-adv-x="255" d="M112 696l-126 147h137l85 -147h-96zM67 0v659h121v-659h-121z" />
<glyph unicode="&#xcd;" horiz-adv-x="255" d="M147 696h-96l85 147h137zM67 0v659h121v-659h-121z" />
<glyph unicode="&#xce;" horiz-adv-x="255" d="M179 696l-54 78l-52 -78h-97l101 147h97l103 -147h-98zM67 0v659h121v-659h-121z" />
<glyph unicode="&#xcf;" horiz-adv-x="255" d="M284 765q0 -26 -18 -45t-44 -19t-44.5 19t-18.5 45t18.5 45t44.5 19t44 -19t18 -45zM97 765q0 -26 -18.5 -45t-44.5 -19t-44 19t-18 45t18 45t44 19t44.5 -19t18.5 -45zM67 0v659h121v-659h-121z" />
<glyph unicode="&#xd1;" horiz-adv-x="729" d="M495 806q0 -41 -20.5 -63t-54.5 -22q-15 0 -28.5 3t-32.5 11l-22 10q-10 5 -20.5 9t-20.5 4q-23 0 -23 -25v-8h-62v22q0 42 20.5 64.5t54.5 22.5q14 0 27.5 -3.5t32.5 -11.5l22 -10q11 -5 21 -8.5t21 -3.5q22 0 22 25v7h63v-23zM550 0l-298 386q-21 28 -36 48.5t-29 41.5 h-2q2 -17 2.5 -41t0.5 -47v-388h-121v659h123l287 -371q23 -30 38 -51t27 -41h2q-2 22 -2 48v48v367h120v-659h-112z" />
<glyph unicode="&#xd2;" horiz-adv-x="745" d="M340 696l-126 147h137l85 -147h-96zM709 329q0 -73 -24 -136t-69 -108q-46 -45 -107 -70t-136 -25q-143 0 -232 81q-51 45 -78 109.5t-27 142.5q0 74 25 136.5t70 109.5q45 45 106 70.5t136 25.5q80 0 144 -26.5t109 -75.5q42 -45 62.5 -105t20.5 -129zM581 327 q0 54 -15 98t-42 74.5t-65.5 47.5t-85.5 17t-85.5 -16t-66 -47t-43 -75t-15.5 -99q0 -56 15.5 -100t43 -75t66 -47t85.5 -16q46 0 84 16t65.5 47t43 75t15.5 100z" />
<glyph unicode="&#xd3;" horiz-adv-x="745" d="M411 696h-96l85 147h137zM709 329q0 -73 -24 -136t-69 -108q-46 -45 -107 -70t-136 -25q-143 0 -232 81q-51 45 -78 109.5t-27 142.5q0 74 25 136.5t70 109.5q45 45 106 70.5t136 25.5q80 0 144 -26.5t109 -75.5q42 -45 62.5 -105t20.5 -129zM581 327q0 54 -15 98 t-42 74.5t-65.5 47.5t-85.5 17t-85.5 -16t-66 -47t-43 -75t-15.5 -99q0 -56 15.5 -100t43 -75t66 -47t85.5 -16q46 0 84 16t65.5 47t43 75t15.5 100z" />
<glyph unicode="&#xd4;" horiz-adv-x="745" d="M420 696l-54 78l-52 -78h-97l101 147h97l104 -147h-99zM709 329q0 -73 -24 -136t-69 -108q-46 -45 -107 -70t-136 -25q-143 0 -232 81q-51 45 -78 109.5t-27 142.5q0 74 25 136.5t70 109.5q45 45 106 70.5t136 25.5q80 0 144 -26.5t109 -75.5q42 -45 62.5 -105t20.5 -129 zM581 327q0 54 -15 98t-42 74.5t-65.5 47.5t-85.5 17t-85.5 -16t-66 -47t-43 -75t-15.5 -99q0 -56 15.5 -100t43 -75t66 -47t85.5 -16q46 0 84 16t65.5 47t43 75t15.5 100z" />
<glyph unicode="&#xd5;" horiz-adv-x="745" d="M709 329q0 -73 -24 -136t-69 -108q-46 -45 -107 -70t-136 -25q-143 0 -232 81q-51 45 -78 109.5t-27 142.5q0 74 25 136.5t70 109.5q45 45 106 70.5t136 25.5q80 0 144 -26.5t109 -75.5q42 -45 62.5 -105t20.5 -129zM581 327q0 54 -15 98t-42 74.5t-65.5 47.5t-85.5 17 t-85.5 -16t-66 -47t-43 -75t-15.5 -99q0 -56 15.5 -100t43 -75t66 -47t85.5 -16q46 0 84 16t65.5 47t43 75t15.5 100zM511 806q0 -41 -20.5 -63t-54.5 -22q-14 0 -28 3t-33 11l-21 10q-11 5 -21 9t-21 4q-22 0 -22 -25v-8h-63v22q0 42 20.5 64.5t54.5 22.5q14 0 28 -3.5 t32 -11.5l23 -10q11 -5 21 -8.5t20 -3.5q23 0 23 25v7h62v-23z" />
<glyph unicode="&#xd6;" horiz-adv-x="745" d="M528 765q0 -26 -18.5 -45t-44.5 -19t-44.5 19t-18.5 45t18.5 45t44.5 19t44.5 -19t18.5 -45zM340 765q0 -26 -18 -45t-44 -19t-44.5 19t-18.5 45t18.5 45t44.5 19t44 -19t18 -45zM709 329q0 -73 -24 -136t-69 -108q-46 -45 -107 -70t-136 -25q-143 0 -232 81 q-51 45 -78 109.5t-27 142.5q0 74 25 136.5t70 109.5q45 45 106 70.5t136 25.5q80 0 144 -26.5t109 -75.5q42 -45 62.5 -105t20.5 -129zM581 327q0 54 -15 98t-42 74.5t-65.5 47.5t-85.5 17t-85.5 -16t-66 -47t-43 -75t-15.5 -99q0 -56 15.5 -100t43 -75t66 -47t85.5 -16 q46 0 84 16t65.5 47t43 75t15.5 100z" />
<glyph unicode="&#xd8;" horiz-adv-x="745" d="M705 328q0 -73 -24 -136t-69 -108q-46 -45 -107 -70.5t-136 -25.5q-48 0 -90 10t-78 29l-50 -67l-79 59l49 65q-43 45 -66 105.5t-23 132.5q0 74 25 136.5t70 109.5q45 45 106 70.5t136 25.5q92 0 163 -36l53 70l81 -59l-52 -69q46 -45 68.5 -108.5t22.5 -133.5zM577 325 q0 43 -9.5 80t-29.5 66l-272 -359q45 -25 102 -25q46 0 84 16.5t66 47t43.5 74.5t15.5 100zM466 541q-20 11 -45 17t-53 6q-46 0 -84.5 -16.5t-66.5 -47t-43.5 -75t-15.5 -100.5q0 -42 10 -78t28 -65z" />
<glyph unicode="&#xd9;" horiz-adv-x="684" d="M311 696l-126 147h137l84 -147h-95zM615 248q0 -57 -16 -104t-50 -81q-35 -35 -86.5 -54t-125.5 -19q-138 0 -205 65q-35 34 -50 83t-15 104v417h121v-409q0 -73 39 -116q38 -41 112 -41q42 0 71.5 10.5t48.5 30.5t27 47.5t8 62.5v415h121v-411z" />
<glyph unicode="&#xda;" horiz-adv-x="684" d="M381 696h-96l85 147h137zM615 248q0 -57 -16 -104t-50 -81q-35 -35 -86.5 -54t-125.5 -19q-138 0 -205 65q-35 34 -50 83t-15 104v417h121v-409q0 -73 39 -116q38 -41 112 -41q42 0 71.5 10.5t48.5 30.5t27 47.5t8 62.5v415h121v-411z" />
<glyph unicode="&#xdb;" horiz-adv-x="684" d="M394 696l-54 78l-51 -78h-98l102 147h96l104 -147h-99zM615 248q0 -57 -16 -104t-50 -81q-35 -35 -86.5 -54t-125.5 -19q-138 0 -205 65q-35 34 -50 83t-15 104v417h121v-409q0 -73 39 -116q38 -41 112 -41q42 0 71.5 10.5t48.5 30.5t27 47.5t8 62.5v415h121v-411z" />
<glyph unicode="&#xdc;" horiz-adv-x="684" d="M498 765q0 -26 -18 -45t-44 -19t-44.5 19t-18.5 45t18.5 45t44.5 19t44 -19t18 -45zM311 765q0 -26 -18.5 -45t-44.5 -19t-44 19t-18 45t18 45t44 19t44.5 -19t18.5 -45zM615 248q0 -57 -16 -104t-50 -81q-35 -35 -86.5 -54t-125.5 -19q-138 0 -205 65q-35 34 -50 83 t-15 104v417h121v-409q0 -73 39 -116q38 -41 112 -41q42 0 71.5 10.5t48.5 30.5t27 47.5t8 62.5v415h121v-411z" />
<glyph unicode="&#xdf;" horiz-adv-x="612" d="M581 150q0 -44 -16.5 -74.5t-44.5 -49.5t-63.5 -27.5t-73.5 -8.5q-53 0 -92 14t-63 28l39 86q21 -16 50.5 -27t63.5 -11q36 0 57.5 14.5t21.5 45.5q0 21 -12.5 37t-30.5 30.5t-40 29t-40 33t-30.5 42.5t-12.5 57q0 48 26 78t68 48q-1 48 -27 83t-78 35q-45 0 -76 -29 t-31 -96v-629h-120v616q0 72 22 117t56 71t75 35.5t78 9.5q39 0 78 -12.5t70.5 -40.5t51 -71.5t19.5 -105.5v-13.5t-1 -14.5q-38 -11 -63 -26.5t-25 -42.5q0 -18 12 -32t30.5 -28t39.5 -29t39.5 -35t30.5 -46t12 -61z" />
<glyph unicode="&#xe0;" horiz-adv-x="494" d="M346 0l-20 42q-23 -21 -56 -36.5t-81 -15.5q-33 0 -61 10.5t-49 30.5t-33 48t-12 63q0 74 53.5 113t145.5 42l84 3v12q0 43 -26.5 61.5t-64.5 18.5t-68.5 -10.5t-53.5 -24.5l-38 75q48 32 92.5 42t92.5 10q88 0 137.5 -39.5t49.5 -132.5v-187q0 -51 2 -79.5t7 -45.5h-101 zM316 217l-68 -2q-49 -2 -71.5 -18t-22.5 -46q0 -29 19.5 -47.5t57.5 -18.5q32 0 53 9.5t32 20.5v102zM222 531l-126 147h137l85 -147h-96z" />
<glyph unicode="&#xe1;" horiz-adv-x="494" d="M346 0l-20 42q-23 -21 -56 -36.5t-81 -15.5q-33 0 -61 10.5t-49 30.5t-33 48t-12 63q0 74 53.5 113t145.5 42l84 3v12q0 43 -26.5 61.5t-64.5 18.5t-68.5 -10.5t-53.5 -24.5l-38 75q48 32 92.5 42t92.5 10q88 0 137.5 -39.5t49.5 -132.5v-187q0 -51 2 -79.5t7 -45.5h-101 zM316 217l-68 -2q-49 -2 -71.5 -18t-22.5 -46q0 -29 19.5 -47.5t57.5 -18.5q32 0 53 9.5t32 20.5v102zM280 531h-96l85 147h137z" />
<glyph unicode="&#xe2;" horiz-adv-x="494" d="M346 0l-20 42q-23 -21 -56 -36.5t-81 -15.5q-33 0 -61 10.5t-49 30.5t-33 48t-12 63q0 74 53.5 113t145.5 42l84 3v12q0 43 -26.5 61.5t-64.5 18.5t-68.5 -10.5t-53.5 -24.5l-38 75q48 32 92.5 42t92.5 10q88 0 137.5 -39.5t49.5 -132.5v-187q0 -51 2 -79.5t7 -45.5h-101 zM305 531l-54 78l-52 -78h-97l101 147h97l104 -147h-99zM316 217l-68 -2q-49 -2 -71.5 -18t-22.5 -46q0 -29 19.5 -47.5t57.5 -18.5q32 0 53 9.5t32 20.5v102z" />
<glyph unicode="&#xe3;" horiz-adv-x="494" d="M346 0l-20 42q-23 -21 -56 -36.5t-81 -15.5q-33 0 -61 10.5t-49 30.5t-33 48t-12 63q0 74 53.5 113t145.5 42l84 3v12q0 43 -26.5 61.5t-64.5 18.5t-68.5 -10.5t-53.5 -24.5l-38 75q48 32 92.5 42t92.5 10q88 0 137.5 -39.5t49.5 -132.5v-187q0 -51 2 -79.5t7 -45.5h-101 zM397 632q0 -40 -20.5 -62.5t-54.5 -22.5q-14 0 -28 3.5t-33 11.5l-21 9q-11 5 -21 9t-21 4q-22 0 -22 -25v-8h-63v23q0 42 20.5 64t54.5 22q14 0 28 -3.5t32 -11.5l23 -9q11 -5 21 -9t20 -4q23 0 23 25v8h62v-24zM316 217l-68 -2q-49 -2 -71.5 -18t-22.5 -46 q0 -29 19.5 -47.5t57.5 -18.5q32 0 53 9.5t32 20.5v102z" />
<glyph unicode="&#xe4;" horiz-adv-x="494" d="M346 0l-20 42q-23 -21 -56 -36.5t-81 -15.5q-33 0 -61 10.5t-49 30.5t-33 48t-12 63q0 74 53.5 113t145.5 42l84 3v12q0 43 -26.5 61.5t-64.5 18.5t-68.5 -10.5t-53.5 -24.5l-38 75q48 32 92.5 42t92.5 10q88 0 137.5 -39.5t49.5 -132.5v-187q0 -51 2 -79.5t7 -45.5h-101 zM316 217l-68 -2q-49 -2 -71.5 -18t-22.5 -46q0 -29 19.5 -47.5t57.5 -18.5q32 0 53 9.5t32 20.5v102zM220 608q0 -27 -18.5 -45.5t-44.5 -18.5t-44.5 18.5t-18.5 45.5q0 26 18.5 44.5t44.5 18.5t44.5 -18.5t18.5 -44.5zM407 608q0 -27 -18.5 -45.5t-44.5 -18.5t-44 18.5 t-18 45.5q0 26 18 44.5t44 18.5t44.5 -18.5t18.5 -44.5z" />
<glyph unicode="&#xe5;" horiz-adv-x="494" d="M346 0l-20 42q-23 -21 -56 -36.5t-81 -15.5q-33 0 -61 10.5t-49 30.5t-33 48t-12 63q0 74 53.5 113t145.5 42l84 3v12q0 43 -26.5 61.5t-64.5 18.5t-68.5 -10.5t-53.5 -24.5l-38 75q48 32 92.5 42t92.5 10q88 0 137.5 -39.5t49.5 -132.5v-187q0 -51 2 -79.5t7 -45.5h-101 zM356 620q0 -44 -29 -71t-75 -27q-47 0 -74.5 27t-27.5 71t28.5 70t74.5 26t74.5 -26t28.5 -70zM316 217l-68 -2q-49 -2 -71.5 -18t-22.5 -46q0 -29 19.5 -47.5t57.5 -18.5q32 0 53 9.5t32 20.5v102zM295 621q0 23 -11 35.5t-32 12.5q-20 0 -31 -12.5t-11 -35.5t11 -35.5 t31 -12.5q21 0 32 12.5t11 35.5z" />
<glyph unicode="&#xe6;" horiz-adv-x="775" d="M435 211q0 -29 10.5 -52t29 -39t43 -25t51.5 -9q34 0 63 8t60 25l29 -77q-40 -28 -85 -40t-87 -12q-60 0 -103.5 20t-72.5 55q-14 -12 -30.5 -25.5t-38 -24.5t-48.5 -18t-63 -7q-34 0 -63 10.5t-50.5 30.5t-33.5 48t-12 63q0 74 53.5 113t145.5 39h85v15q0 43 -25 63 t-67 20q-38 0 -68.5 -10.5t-53.5 -24.5l-38 74q45 31 91 42t94 11q47 0 84 -13t60 -42q26 25 59 40t75 15q48 0 87 -17.5t67 -49.5t43 -76.5t15 -99.5v-30h-306zM335 125q-8 20 -13 42.5t-6 43.5h-59q-55 0 -79 -15.5t-24 -45.5q0 -29 20 -47t59 -18q35 0 60 12.5t42 27.5z M617 294q-1 17 -6.5 35t-17 32.5t-28.5 23.5t-40 9q-22 0 -39 -9t-29 -23t-18 -32t-6 -36h184z" />
<glyph unicode="&#xe7;" horiz-adv-x="446" d="M442 44q-24 -17 -60.5 -32t-81.5 -20l-11 -34q12 0 24 -3t22.5 -10t17 -19t6.5 -30q0 -20 -10 -34.5t-26 -23.5t-34.5 -13.5t-36.5 -4.5q-26 0 -42 4t-30 11l16 45q10 -5 21 -8.5t25 -3.5t25.5 5.5t11.5 19.5t-11.5 19.5t-36.5 6.5l-26 1l23 73q-48 6 -84 27.5t-60.5 54 t-36.5 73.5t-12 86q0 53 18 98.5t50.5 79.5t78.5 53t103 19q49 0 83 -10t55 -23l-2 -97q-28 20 -57.5 29.5t-64.5 9.5q-33 0 -59.5 -11.5t-45 -31.5t-29 -48t-10.5 -61q0 -30 8 -58t25.5 -49t44 -33.5t63.5 -12.5q34 0 62.5 9.5t54.5 23.5z" />
<glyph unicode="&#xe8;" horiz-adv-x="496" d="M157 205q1 -26 11.5 -48t28.5 -38t42 -24.5t51 -8.5q34 0 63 8t60 25l29 -77q-40 -28 -85 -40t-87 -12q-62 0 -106.5 20.5t-73 55t-42 79t-13.5 92.5q0 51 14.5 95.5t42.5 78.5t67.5 53.5t90.5 19.5q48 0 87 -17.5t67 -49.5t43 -77t15 -100v-35h-305zM224 531l-126 147 h137l85 -147h-96zM338 290q-1 19 -6.5 37.5t-17 33.5t-28 24t-39.5 9q-22 0 -39 -9t-29 -23.5t-18.5 -33.5t-6.5 -38h184z" />
<glyph unicode="&#xe9;" horiz-adv-x="496" d="M157 205q1 -26 11.5 -48t28.5 -38t42 -24.5t51 -8.5q34 0 63 8t60 25l29 -77q-40 -28 -85 -40t-87 -12q-62 0 -106.5 20.5t-73 55t-42 79t-13.5 92.5q0 51 14.5 95.5t42.5 78.5t67.5 53.5t90.5 19.5q48 0 87 -17.5t67 -49.5t43 -77t15 -100v-35h-305zM287 531h-95l84 147 h137zM338 290q-1 19 -6.5 37.5t-17 33.5t-28 24t-39.5 9q-22 0 -39 -9t-29 -23.5t-18.5 -33.5t-6.5 -38h184z" />
<glyph unicode="&#xea;" horiz-adv-x="496" d="M157 205q1 -26 11.5 -48t28.5 -38t42 -24.5t51 -8.5q34 0 63 8t60 25l29 -77q-40 -28 -85 -40t-87 -12q-62 0 -106.5 20.5t-73 55t-42 79t-13.5 92.5q0 51 14.5 95.5t42.5 78.5t67.5 53.5t90.5 19.5q48 0 87 -17.5t67 -49.5t43 -77t15 -100v-35h-305zM308 531l-54 78 l-52 -78h-97l101 147h97l103 -147h-98zM338 290q-1 19 -6.5 37.5t-17 33.5t-28 24t-39.5 9q-22 0 -39 -9t-29 -23.5t-18.5 -33.5t-6.5 -38h184z" />
<glyph unicode="&#xeb;" horiz-adv-x="496" d="M157 205q1 -26 11.5 -48t28.5 -38t42 -24.5t51 -8.5q34 0 63 8t60 25l29 -77q-40 -28 -85 -40t-87 -12q-62 0 -106.5 20.5t-73 55t-42 79t-13.5 92.5q0 51 14.5 95.5t42.5 78.5t67.5 53.5t90.5 19.5q48 0 87 -17.5t67 -49.5t43 -77t15 -100v-35h-305zM338 290 q-1 19 -6.5 37.5t-17 33.5t-28 24t-39.5 9q-22 0 -39 -9t-29 -23.5t-18.5 -33.5t-6.5 -38h184zM220 608q0 -27 -18 -45.5t-44 -18.5t-44.5 18.5t-18.5 45.5q0 26 18.5 44.5t44.5 18.5t44 -18.5t18 -44.5zM408 608q0 -27 -18.5 -45.5t-44.5 -18.5t-44 18.5t-18 45.5 q0 26 18 44.5t44 18.5t44.5 -18.5t18.5 -44.5z" />
<glyph unicode="&#xec;" horiz-adv-x="260" d="M112 531l-126 147h137l84 -147h-95zM70 0v473h120v-473h-120z" />
<glyph unicode="&#xed;" horiz-adv-x="260" d="M149 531h-96l85 147h137zM70 0v473h120v-473h-120z" />
<glyph unicode="&#xee;" horiz-adv-x="260" d="M183 531l-54 78l-51 -78h-98l102 147h96l104 -147h-99zM70 0v473h120v-473h-120z" />
<glyph unicode="&#xef;" horiz-adv-x="260" d="M288 608q0 -27 -18.5 -45.5t-44.5 -18.5t-44.5 18.5t-18.5 45.5q0 26 18.5 44.5t44.5 18.5t44.5 -18.5t18.5 -44.5zM100 608q0 -27 -18 -45.5t-44 -18.5t-44.5 18.5t-18.5 45.5q0 26 18.5 44.5t44.5 18.5t44 -18.5t18 -44.5zM70 0v473h120v-473h-120z" />
<glyph unicode="&#xf1;" horiz-adv-x="539" d="M416 632q0 -40 -20.5 -62.5t-54.5 -22.5q-15 0 -28.5 3.5t-32.5 11.5l-22 9q-10 5 -20.5 9t-20.5 4q-23 0 -23 -25v-8h-62v23q0 42 20.5 64t54.5 22q14 0 27.5 -3.5t32.5 -11.5l22 -9q11 -5 21 -9t21 -4q22 0 22 25v8h63v-24zM366 0v278q0 18 -2.5 36.5t-10 33.5t-21 24 t-36.5 9q-32 0 -62 -14.5t-58 -35.5v-331h-120v473h102l13 -51q38 29 78 45.5t88 16.5q27 0 53.5 -8.5t48 -28.5t34.5 -52.5t13 -80.5v-314h-120z" />
<glyph unicode="&#xf2;" horiz-adv-x="544" d="M241 531l-126 147h137l84 -147h-95zM509 238q0 -54 -17 -100.5t-50 -79.5q-32 -32 -74.5 -50t-96.5 -18q-50 0 -91 15t-72 44q-35 33 -54 80.5t-19 104.5q0 56 18 102.5t51 80.5q32 32 74 49.5t94 17.5q55 0 98.5 -18t75.5 -50q63 -68 63 -178zM386 237q0 69 -30 110.5 t-86 41.5q-57 0 -85 -43t-28 -109q0 -69 30.5 -111.5t85.5 -42.5q56 0 84.5 43.5t28.5 110.5z" />
<glyph unicode="&#xf3;" horiz-adv-x="544" d="M322 531h-95l84 147h137zM509 238q0 -54 -17 -100.5t-50 -79.5q-32 -32 -74.5 -50t-96.5 -18q-50 0 -91 15t-72 44q-35 33 -54 80.5t-19 104.5q0 56 18 102.5t51 80.5q32 32 74 49.5t94 17.5q55 0 98.5 -18t75.5 -50q63 -68 63 -178zM386 237q0 69 -30 110.5t-86 41.5 q-57 0 -85 -43t-28 -109q0 -69 30.5 -111.5t85.5 -42.5q56 0 84.5 43.5t28.5 110.5z" />
<glyph unicode="&#xf4;" horiz-adv-x="544" d="M326 531l-54 78l-52 -78h-97l101 147h97l104 -147h-99zM509 238q0 -54 -17 -100.5t-50 -79.5q-32 -32 -74.5 -50t-96.5 -18q-50 0 -91 15t-72 44q-35 33 -54 80.5t-19 104.5q0 56 18 102.5t51 80.5q32 32 74 49.5t94 17.5q55 0 98.5 -18t75.5 -50q63 -68 63 -178z M386 237q0 69 -30 110.5t-86 41.5q-57 0 -85 -43t-28 -109q0 -69 30.5 -111.5t85.5 -42.5q56 0 84.5 43.5t28.5 110.5z" />
<glyph unicode="&#xf5;" horiz-adv-x="544" d="M509 238q0 -54 -17 -100.5t-50 -79.5q-32 -32 -74.5 -50t-96.5 -18q-50 0 -91 15t-72 44q-35 33 -54 80.5t-19 104.5q0 56 18 102.5t51 80.5q32 32 74 49.5t94 17.5q55 0 98.5 -18t75.5 -50q63 -68 63 -178zM386 237q0 69 -30 110.5t-86 41.5q-57 0 -85 -43t-28 -109 q0 -69 30.5 -111.5t85.5 -42.5q56 0 84.5 43.5t28.5 110.5zM425 632q0 -40 -20.5 -62.5t-54.5 -22.5q-15 0 -28.5 3.5t-32.5 11.5l-22 9q-10 5 -20.5 9t-20.5 4q-23 0 -23 -25v-8h-62v23q0 42 20.5 64t54.5 22q14 0 27.5 -3.5t32.5 -11.5l22 -9q11 -5 21 -9t21 -4 q22 0 22 25v8h63v-24z" />
<glyph unicode="&#xf6;" horiz-adv-x="544" d="M432 608q0 -27 -18 -45.5t-44 -18.5t-44.5 18.5t-18.5 45.5q0 26 18.5 44.5t44.5 18.5t44 -18.5t18 -44.5zM245 608q0 -27 -18.5 -45.5t-44.5 -18.5t-44 18.5t-18 45.5q0 26 18 44.5t44 18.5t44.5 -18.5t18.5 -44.5zM509 238q0 -54 -17 -100.5t-50 -79.5 q-32 -32 -74.5 -50t-96.5 -18q-50 0 -91 15t-72 44q-35 33 -54 80.5t-19 104.5q0 56 18 102.5t51 80.5q32 32 74 49.5t94 17.5q55 0 98.5 -18t75.5 -50q63 -68 63 -178zM386 237q0 69 -30 110.5t-86 41.5q-57 0 -85 -43t-28 -109q0 -69 30.5 -111.5t85.5 -42.5 q56 0 84.5 43.5t28.5 110.5z" />
<glyph unicode="&#xf7;" horiz-adv-x="592" d="M60 200v101h471v-101h-471zM363 76q0 -28 -19 -47t-45 -19q-27 0 -46 19t-19 47q0 29 19 47.5t46 18.5q26 0 45 -18.5t19 -47.5zM363 424q0 -28 -19 -46.5t-45 -18.5q-27 0 -46 18.5t-19 46.5q0 29 19 47.5t46 18.5q26 0 45 -18.5t19 -47.5z" />
<glyph unicode="&#xf8;" horiz-adv-x="545" d="M449 411q30 -31 45.5 -76.5t15.5 -96.5q0 -54 -17.5 -100.5t-49.5 -79.5q-32 -32 -75 -50t-96 -18q-68 0 -121 28l-39 -52l-56 42l40 53q-29 33 -45 77t-16 96q0 56 18 102.5t51 80.5q32 32 74 49.5t94 17.5q68 0 123 -29l38 49l57 -40zM331 371q-26 18 -61 18 q-57 0 -85 -43t-28 -109q0 -44 14 -78zM386 237q0 42 -12 75l-160 -211q24 -18 59 -18q56 0 84.5 43.5t28.5 110.5z" />
<glyph unicode="&#xf9;" horiz-adv-x="534" d="M237 531l-126 147h137l84 -147h-95zM382 0l-20 47q-25 -23 -61.5 -40t-83.5 -17q-24 0 -52 7.5t-52 27.5t-40.5 56t-16.5 93v299h120v-292q0 -45 21 -70.5t65 -25.5q29 0 52 12.5t39 26.5v349h120v-342q0 -55 1.5 -84t6.5 -47h-99z" />
<glyph unicode="&#xfa;" horiz-adv-x="534" d="M303 531h-96l85 147h137zM382 0l-20 47q-25 -23 -61.5 -40t-83.5 -17q-24 0 -52 7.5t-52 27.5t-40.5 56t-16.5 93v299h120v-292q0 -45 21 -70.5t65 -25.5q29 0 52 12.5t39 26.5v349h120v-342q0 -55 1.5 -84t6.5 -47h-99z" />
<glyph unicode="&#xfb;" horiz-adv-x="534" d="M317 531l-54 78l-51 -78h-98l102 147h96l104 -147h-99zM382 0l-20 47q-25 -23 -61.5 -40t-83.5 -17q-24 0 -52 7.5t-52 27.5t-40.5 56t-16.5 93v299h120v-292q0 -45 21 -70.5t65 -25.5q29 0 52 12.5t39 26.5v349h120v-342q0 -55 1.5 -84t6.5 -47h-99z" />
<glyph unicode="&#xfc;" horiz-adv-x="534" d="M419 608q0 -27 -18 -45.5t-44 -18.5t-44.5 18.5t-18.5 45.5q0 26 18.5 44.5t44.5 18.5t44 -18.5t18 -44.5zM232 608q0 -27 -18.5 -45.5t-44.5 -18.5t-44 18.5t-18 45.5q0 26 18 44.5t44 18.5t44.5 -18.5t18.5 -44.5zM382 0l-20 47q-25 -23 -61.5 -40t-83.5 -17 q-24 0 -52 7.5t-52 27.5t-40.5 56t-16.5 93v299h120v-292q0 -45 21 -70.5t65 -25.5q29 0 52 12.5t39 26.5v349h120v-342q0 -55 1.5 -84t6.5 -47h-99z" />
<glyph unicode="&#xff;" horiz-adv-x="523" d="M424 608q0 -27 -18.5 -45.5t-44.5 -18.5t-44 18.5t-18 45.5q0 26 18 44.5t44 18.5t44.5 -18.5t18.5 -44.5zM237 608q0 -27 -18.5 -45.5t-44.5 -18.5t-44.5 18.5t-18.5 45.5q0 26 18.5 44.5t44.5 18.5t44.5 -18.5t18.5 -44.5zM333 -18q-27 -72 -54.5 -115.5t-56.5 -66 t-59.5 -29.5t-61.5 -7q-34 0 -61 5.5t-51 16.5l30 91q19 -9 36 -13.5t40 -4.5q18 0 35 7t33 24t31 44.5t29 68.5l-217 470h127l148 -336h2l114 336h119z" />
<glyph unicode="&#x11e;" horiz-adv-x="681" d="M624 52q-45 -25 -110 -43.5t-145 -18.5q-77 0 -139 25.5t-105 70.5t-66 105.5t-23 130.5q0 73 26.5 136t74.5 109t115.5 72t150.5 26q63 0 110.5 -10.5t83.5 -23.5l-2 -113q-38 20 -83 33.5t-97 13.5q-65 0 -111.5 -18.5t-76.5 -50.5t-44.5 -74t-14.5 -90q0 -52 16 -96 t45.5 -76.5t72.5 -51t97 -18.5q33 0 59.5 5t44.5 13v224h121v-280zM511 819q0 -56 -31.5 -84t-86.5 -28h-9q-54 0 -83.5 28t-29.5 84h60q2 -20 15.5 -32t36.5 -12h14q24 0 38 12t15 32h61z" />
<glyph unicode="&#x11f;" horiz-adv-x="504" d="M498 -79q0 -31 -16 -59.5t-48 -50t-81 -34.5t-116 -13q-53 0 -95 11t-71 30.5t-44 44.5t-15 54q0 41 25.5 69t61.5 44q-17 9 -24.5 26t-7.5 33q0 22 15 45.5t45 42.5q-38 20 -60 60t-22 85q0 34 12.5 65.5t37.5 56.5t61.5 40t84.5 15q29 0 51.5 -6t38.5 -15q7 -4 12 3 q21 19 55.5 31t93.5 6l-25 -89q-19 4 -36 5t-31 -5q21 -23 33 -50.5t12 -68.5q0 -39 -15.5 -70t-42 -53.5t-61.5 -34.5t-75 -12q-19 0 -34 2t-30 7q-6 -10 -9 -18.5t-3 -19.5q0 -18 24 -26t60 -13t77.5 -11t77.5 -20t60 -39t24 -68zM327 306q0 33 -23.5 60.5t-65.5 27.5 q-33 0 -56 -21t-23 -62q0 -38 22 -65t62 -27q35 0 59.5 21.5t24.5 65.5zM367 -92q0 23 -25.5 34.5t-60.5 18.5t-70.5 11.5t-55.5 12.5q-12 -8 -26 -22.5t-14 -39.5q0 -30 35 -52t97 -22q52 0 86 15.5t34 43.5zM372 656q0 -56 -31.5 -84t-86.5 -28h-9q-54 0 -83.5 28 t-29.5 84h60q2 -20 15.5 -32t36.5 -12h14q24 0 38 12t15 32h61z" />
<glyph unicode="&#x130;" horiz-adv-x="255" d="M67 0v659h121v-659h-121zM190 773q0 -27 -18.5 -45.5t-44.5 -18.5t-44 18.5t-18 45.5q0 26 18 44.5t44 18.5t44.5 -18.5t18.5 -44.5z" />
<glyph unicode="&#x131;" horiz-adv-x="269" d="M75 0v473h120v-473h-120z" />
<glyph unicode="&#x152;" horiz-adv-x="881" d="M552 0q-52 0 -102.5 -6t-81.5 -6q-69 0 -128 23t-103 65q-48 45 -74.5 109.5t-26.5 140.5q0 72 25.5 133.5t71.5 107t108 71.5t136 26q9 0 23.5 -1t33 -1.5t39 -1.5t40.5 -1h327l-34 -101h-212v-171h212v-101h-212v-185h246v-101h-288zM473 548q-26 8 -56 12t-52 4 q-47 0 -84 -17t-63 -47t-40 -72.5t-14 -93.5q0 -54 14.5 -99t41.5 -77.5t66 -51t88 -18.5q20 0 46.5 3.5t52.5 9.5v447z" />
<glyph unicode="&#x153;" horiz-adv-x="841" d="M502 205q1 -26 11.5 -48t28.5 -38t42 -24.5t51 -8.5q34 0 63 8t60 25l29 -77q-40 -28 -85 -40t-87 -12q-60 0 -103 21t-71 55q-29 -36 -71.5 -56t-98.5 -20q-50 0 -91 15t-72 44q-35 33 -54 80.5t-19 104.5q0 56 18 102.5t51 80.5q32 32 74 49.5t94 17.5q59 0 101 -20 t71 -54q26 34 64 54t87 20q48 0 87 -17.5t67 -49.5t43 -77t15 -100v-35h-305zM386 237q0 69 -30 110.5t-86 41.5q-57 0 -85 -43t-28 -109q0 -69 30.5 -111.5t85.5 -42.5q56 0 84.5 43.5t28.5 110.5zM684 290q-1 19 -6.5 37.5t-17 33.5t-28.5 24t-40 9q-22 0 -39 -9 t-29 -23.5t-18 -33.5t-6 -38h184z" />
<glyph unicode="&#x15e;" horiz-adv-x="501" d="M330 -105q0 -20 -10 -34.5t-26 -23.5t-34.5 -13.5t-36.5 -4.5q-26 0 -41.5 4t-30.5 11l17 46q9 -5 20.5 -8.5t25.5 -3.5t25.5 5.5t11.5 19.5t-12 19t-37 7l-25 1l22 72q-55 5 -95.5 21.5t-69.5 36.5l49 89q27 -19 64.5 -34.5t84.5 -15.5q19 0 38.5 4t35 13t25.5 23.5 t10 35.5q0 35 -26.5 58.5t-64 43.5t-78.5 42.5t-71 56.5q-20 22 -31.5 51t-11.5 67q0 37 14 69.5t41.5 57.5t67.5 39.5t92 14.5q53 0 94 -11t68 -26l-2 -108q-38 21 -75.5 33.5t-78.5 12.5q-40 0 -67.5 -17t-27.5 -50q0 -31 21 -52t53 -39.5t68.5 -37.5t68.5 -44t53 -60.5 t21 -86.5q0 -40 -15 -72.5t-41.5 -56.5t-63 -39t-78.5 -19l-11 -34q12 -1 24 -4t22.5 -10t17 -19t6.5 -30z" />
<glyph unicode="&#x15f;" horiz-adv-x="418" d="M289 -105q0 -20 -10 -34.5t-26 -23.5t-34.5 -13.5t-36.5 -4.5q-26 0 -41.5 4t-30.5 11l17 46q9 -5 20.5 -8.5t25.5 -3.5t25.5 5.5t11.5 19.5t-12 19t-37 7l-25 1l22 71q-45 4 -79 15.5t-60 27.5l39 88q26 -18 59 -30t68 -12q37 0 59 13t22 37q0 21 -16 34t-40.5 23.5 t-52.5 21t-52.5 27.5t-40.5 42.5t-16 65.5q0 62 46.5 101t132.5 39q45 0 78 -6.5t61 -17.5v-100q-31 12 -63.5 21.5t-70.5 9.5q-32 0 -49.5 -10t-17.5 -31q0 -19 16.5 -30.5t41 -21.5t53.5 -21.5t53.5 -28.5t41 -43.5t16.5 -67.5q0 -35 -12.5 -60.5t-34 -43.5t-50 -28 t-60.5 -13l-11 -34q12 -1 24 -4t22.5 -10t17 -19t6.5 -30z" />
<glyph unicode="&#x178;" horiz-adv-x="586" d="M450 765q0 -26 -18 -45t-44 -19t-44.5 19t-18.5 45t18.5 45t44.5 19t44 -19t18 -45zM263 765q0 -26 -18.5 -45t-44.5 -19t-44 19t-18 45t18 45t44 19t44.5 -19t18.5 -45zM354 260v-260h-121v262l-225 397h133l104 -191q13 -23 27 -49t25 -49h2q11 23 24 48.5t25 48.5 l104 192h127z" />
<glyph unicode="&#x192;" d="M489 590q-19 12 -37.5 17t-35.5 5t-32 -6t-27 -19.5t-20.5 -36t-11.5 -56.5l-9 -101h130l-31 -92h-108l-22 -251q-6 -68 -25 -110t-45 -66q-29 -27 -64 -35t-65 -8q-37 0 -67.5 6.5t-62.5 26.5l46 84q19 -11 38 -16t36 -5q16 0 31 5.5t27.5 19t21 36t11.5 56.5l24 257 h-99v92h107l10 111q6 64 26 103.5t48 62t61 30.5t64 8q35 0 65.5 -7t62.5 -26z" />
<glyph unicode="&#x2c6;" horiz-adv-x="400" d="M255 531l-54 78l-52 -78h-98l102 147h97l103 -147h-98z" />
<glyph unicode="&#x2c7;" horiz-adv-x="400" d="M253 531h-97l-104 147h99l54 -78l52 78h97z" />
<glyph unicode="&#x2d8;" horiz-adv-x="331" d="M290 656q0 -56 -31.5 -84t-86.5 -28h-9q-54 0 -83.5 28t-29.5 84h60q2 -20 15.5 -32t36.5 -12h14q24 0 38 12t15 32h61z" />
<glyph unicode="&#x2d9;" horiz-adv-x="364" d="M245 608q0 -27 -18.5 -45.5t-44.5 -18.5t-44 18.5t-18 45.5q0 26 18 44.5t44 18.5t44.5 -18.5t18.5 -44.5z" />
<glyph unicode="&#x2da;" horiz-adv-x="388" d="M299 620q0 -44 -29 -71t-75 -27t-74 27t-28 71t29 70t74 26q46 0 74.5 -26t28.5 -70zM238 621q0 23 -11 35.5t-32 12.5q-20 0 -31 -12.5t-11 -35.5t11.5 -35.5t30.5 -12.5q22 0 32.5 12.5t10.5 35.5z" />
<glyph unicode="&#x2db;" horiz-adv-x="487" d="M316 -165q-13 -7 -35.5 -11.5t-48.5 -4.5q-13 0 -30 2.5t-32 10.5t-25.5 22t-10.5 37q0 21 10 38.5t24 32t28.5 24t22.5 14.5h69q-8 -4 -20.5 -13.5t-24.5 -22t-20.5 -27.5t-8.5 -31q0 -11 4 -18t10.5 -11t13.5 -5t13 -1q24 0 46 11z" />
<glyph unicode="&#x2dc;" horiz-adv-x="384" d="M334 632q0 -40 -20.5 -62.5t-53.5 -22.5q-15 0 -28.5 3.5t-32.5 11.5l-22 9q-10 5 -20.5 9t-20.5 4q-23 0 -23 -25v-8h-62v23q0 42 20.5 64t54.5 22q14 0 27.5 -3.5t32.5 -11.5l22 -9q11 -5 21 -9t20 -4q23 0 23 25v8h62v-24z" />
<glyph unicode="&#x2dd;" horiz-adv-x="666" d="M407 531h-89l80 147h127zM240 531h-89l80 147h125z" />
<glyph unicode="&#x2013;" horiz-adv-x="500" d="M0 205v89h500v-89h-500z" />
<glyph unicode="&#x2014;" horiz-adv-x="1000" d="M0 205v89h1000v-89h-1000z" />
<glyph unicode="&#x2018;" horiz-adv-x="220" d="M72 461q-29 62 -27.5 128.5t37.5 131.5l77 -14q-7 -30 -8.5 -55t0.5 -49t8.5 -47.5t16.5 -49.5z" />
<glyph unicode="&#x2019;" horiz-adv-x="235" d="M185 719q14 -67 -2.5 -132t-65.5 -120l-73 31q13 27 21 51.5t11 48t2 48t-5 52.5z" />
<glyph unicode="&#x201a;" horiz-adv-x="235" d="M185 119q14 -67 -2.5 -132t-65.5 -120l-73 31q13 27 21 51.5t11 48t2 48t-5 52.5z" />
<glyph unicode="&#x201c;" horiz-adv-x="410" d="M262 461q-29 62 -27.5 128.5t37.5 131.5l77 -14q-7 -30 -8.5 -55t0.5 -49t8.5 -47.5t16.5 -49.5zM72 461q-29 62 -27.5 128.5t37.5 131.5l77 -14q-7 -30 -8.5 -55t0.5 -49t8.5 -47.5t16.5 -49.5z" />
<glyph unicode="&#x201d;" horiz-adv-x="424" d="M375 719q14 -67 -3 -132t-66 -120l-72 31q13 27 21 51.5t11 48t2 48t-5 52.5zM185 719q14 -67 -2.5 -132t-65.5 -120l-73 31q13 27 21 51.5t11 48t2 48t-5 52.5z" />
<glyph unicode="&#x201e;" horiz-adv-x="424" d="M375 119q14 -67 -3 -132t-66 -120l-72 31q13 27 21 51.5t11 48t2 48t-5 52.5zM185 119q14 -67 -2.5 -132t-65.5 -120l-73 31q13 27 21 51.5t11 48t2 48t-5 52.5z" />
<glyph unicode="&#x2020;" horiz-adv-x="528" d="M468 370q-17 0 -38 2t-42 5t-40 5.5t-32 2.5q-2 -37 2.5 -95.5t4.5 -149.5v-189h-117v189q0 92 4 150.5t2 94.5q-13 0 -32 -2.5t-40 -5.5t-42 -5t-38 -2v124q16 0 37 -2.5t42.5 -5.5t41 -5.5t32.5 -3.5q1 14 -1 34t-4.5 42t-4.5 43t-2 38h127q0 -16 -2.5 -37t-5 -43 t-4.5 -42t-2 -35q13 1 32.5 3.5t41.5 5.5t43 5.5t37 2.5v-124z" />
<glyph unicode="&#x2021;" horiz-adv-x="528" d="M468 91q-16 0 -37 2.5t-43 5.5t-41.5 5.5t-32.5 3.5q0 -15 2 -35t4.5 -42t5 -43t2.5 -37h-127q0 17 2 38t4.5 43t4.5 42t1 34q-13 -1 -32.5 -3.5t-41 -5.5t-42.5 -5.5t-37 -2.5v124q17 0 38 -2t42 -5t40 -5.5t32 -2.5q2 17 -0.5 40t-1.5 53q-1 31 1.5 53t0.5 39 q-13 0 -32 -2.5t-40 -5.5t-42 -5t-38 -2v124q16 0 37 -2.5t42.5 -5.5t41 -5.5t32.5 -3.5q1 14 -1 34t-4.5 42t-4.5 43t-2 38h127q0 -16 -2.5 -37t-5 -43t-4.5 -42t-2 -35q13 1 32.5 3.5t41.5 5.5t43 5.5t37 2.5v-124q-17 0 -38 2t-42 5t-40 5.5t-32 2.5q-1 -17 0.5 -39.5 t1.5 -52.5t-1.5 -53t-0.5 -40q13 0 32 2.5t40 5.5t42 5t38 2v-124z" />
<glyph unicode="&#x2022;" horiz-adv-x="327" d="M281 317q0 -25 -9 -46.5t-24.5 -38t-37.5 -26t-47 -9.5t-46.5 9.5t-37 26t-24.5 38t-9 46.5q0 26 9 48.5t24.5 39t37 26t46.5 9.5t47 -9.5t37.5 -26t24.5 -39t9 -48.5z" />
<glyph unicode="&#x2026;" horiz-adv-x="725" d="M679 58q0 -30 -20.5 -50.5t-49.5 -20.5t-49.5 20.5t-20.5 50.5q0 31 20.5 51.5t49.5 20.5t49.5 -20.5t20.5 -51.5zM431 58q0 -30 -20 -50.5t-49 -20.5t-49.5 20.5t-20.5 50.5q0 31 20.5 51.5t49.5 20.5t49 -20.5t20 -51.5zM184 58q0 -30 -20 -50.5t-49 -20.5t-49.5 20.5 t-20.5 50.5q0 31 20.5 51.5t49.5 20.5t49 -20.5t20 -51.5z" />
<glyph unicode="&#x2030;" horiz-adv-x="1263" d="M1193 170q0 -45 -12.5 -78.5t-35 -56t-52.5 -33.5t-64 -11t-63 11t-50.5 33t-33.5 55t-12 77q0 45 12.5 78.5t34.5 56t52 33.5t64 11q69 0 114.5 -44t45.5 -132zM825 170q0 -45 -13 -78.5t-35 -56t-52 -33.5t-64 -11q-69 0 -114.5 44t-45.5 132q0 45 13 78.5t35 56 t52 33.5t64 11q69 0 114.5 -44t45.5 -132zM278 -20h-106l444 696h111zM394 490q0 -45 -13 -78t-35 -55.5t-52 -33.5t-64 -11q-69 0 -114 43.5t-45 132.5q0 45 12.5 78.5t34.5 56t52 33.5t64 11t63.5 -11t51 -33t33.5 -55.5t12 -77.5zM1094 167q0 57 -17 81.5t-48 24.5 t-45.5 -28t-14.5 -74q0 -57 17 -82t47 -25q34 0 47.5 28t13.5 75zM726 167q0 57 -17 81.5t-48 24.5q-32 0 -46.5 -28t-14.5 -74q0 -57 17.5 -82t47.5 -25q33 0 47 28t14 75zM295 488q0 57 -17 81.5t-48 24.5q-32 0 -46.5 -28t-14.5 -75q0 -57 17.5 -81.5t47.5 -24.5 q33 0 47 28t14 75z" />
<glyph unicode="&#x2039;" horiz-adv-x="255" d="M67 0v659h121v-659h-121zM190 773q0 -27 -18.5 -45.5t-44.5 -18.5t-44 18.5t-18 45.5q0 26 18 44.5t44 18.5t44.5 -18.5t18.5 -44.5z" />
<glyph unicode="&#x203a;" horiz-adv-x="269" d="M75 0v473h120v-473h-120z" />
<glyph unicode="&#x2044;" horiz-adv-x="681" d="M624 52q-45 -25 -110 -43.5t-145 -18.5q-77 0 -139 25.5t-105 70.5t-66 105.5t-23 130.5q0 73 26.5 136t74.5 109t115.5 72t150.5 26q63 0 110.5 -10.5t83.5 -23.5l-2 -113q-38 20 -83 33.5t-97 13.5q-65 0 -111.5 -18.5t-76.5 -50.5t-44.5 -74t-14.5 -90q0 -52 16 -96 t45.5 -76.5t72.5 -51t97 -18.5q33 0 59.5 5t44.5 13v224h121v-280zM511 819q0 -56 -31.5 -84t-86.5 -28h-9q-54 0 -83.5 28t-29.5 84h60q2 -20 15.5 -32t36.5 -12h14q24 0 38 12t15 32h61z" />
<glyph unicode="&#x20ac;" horiz-adv-x="504" d="M498 -79q0 -31 -16 -59.5t-48 -50t-81 -34.5t-116 -13q-53 0 -95 11t-71 30.5t-44 44.5t-15 54q0 41 25.5 69t61.5 44q-17 9 -24.5 26t-7.5 33q0 22 15 45.5t45 42.5q-38 20 -60 60t-22 85q0 34 12.5 65.5t37.5 56.5t61.5 40t84.5 15q29 0 51.5 -6t38.5 -15q7 -4 12 3 q21 19 55.5 31t93.5 6l-25 -89q-19 4 -36 5t-31 -5q21 -23 33 -50.5t12 -68.5q0 -39 -15.5 -70t-42 -53.5t-61.5 -34.5t-75 -12q-19 0 -34 2t-30 7q-6 -10 -9 -18.5t-3 -19.5q0 -18 24 -26t60 -13t77.5 -11t77.5 -20t60 -39t24 -68zM327 306q0 33 -23.5 60.5t-65.5 27.5 q-33 0 -56 -21t-23 -62q0 -38 22 -65t62 -27q35 0 59.5 21.5t24.5 65.5zM367 -92q0 23 -25.5 34.5t-60.5 18.5t-70.5 11.5t-55.5 12.5q-12 -8 -26 -22.5t-14 -39.5q0 -30 35 -52t97 -22q52 0 86 15.5t34 43.5zM372 656q0 -56 -31.5 -84t-86.5 -28h-9q-54 0 -83.5 28 t-29.5 84h60q2 -20 15.5 -32t36.5 -12h14q24 0 38 12t15 32h61z" />
<glyph unicode="&#x2122;" horiz-adv-x="856" d="M703 264v187v30t2 29h-1q-7 -14 -15 -26.5t-16 -25.5l-63 -93h-46l-65 93q-8 13 -15.5 25.5t-14.5 26.5h-2q2 -16 2 -29v-30v-187h-97v395h87l89 -128q12 -17 20.5 -30t16.5 -29h3q8 14 15.5 27t18.5 30l86 130h92v-395h-97zM330 578h-105v-314h-97v314h-112v81h336z" />
<glyph unicode="&#x25fc;" horiz-adv-x="475" d="M0 475h475v-475h-475v475z" />
</font>
</defs>
</svg>
